<svg width="269" height="251" viewBox="0 0 269 251" fill="none" xmlns="http://www.w3.org/2000/svg">
<path d="M3.39998 54.8296C2.01998 20.1571 26.0182 2.91403 53.8804 9.67603C67.2388 12.919 80.68 31.066 93.3001 37.069C109.763 44.9281 125.682 42.4027 142.29 44.9764C183.635 51.3727 180.137 68.05 203.948 95.3464C220.688 114.556 252.248 119.324 257.962 148.104C264.924 183.294 225.752 191.519 198.925 181.003C168.117 168.928 152.316 206.823 104.54 192.436C57.5443 178.305 4.77998 106.918 3.39998 54.8296Z" fill="#FF6600"/>
<path opacity="0.9" d="M3.39998 54.8296C2.01998 20.1571 26.0182 2.91403 53.8804 9.67603C67.2388 12.919 80.68 31.066 93.3001 37.069C109.763 44.9281 125.682 42.4027 142.29 44.9764C183.635 51.3727 180.137 68.05 203.948 95.3464C220.688 114.556 252.248 119.324 257.962 148.104C264.924 183.294 225.752 191.519 198.925 181.003C168.117 168.928 152.316 206.823 104.54 192.436C57.5443 178.305 4.77998 106.918 3.39998 54.8296Z" fill="white"/>
<path d="M134.5 250.017C208.387 250.017 268.284 246.52 268.284 242.206C268.284 237.893 208.387 234.396 134.5 234.396C60.613 234.396 0.71582 237.893 0.71582 242.206C0.71582 246.52 60.613 250.017 134.5 250.017Z" fill="#F5F5F5"/>
<path d="M171.857 143.46C174.244 154.7 161.438 159.454 156.118 154.5C150.798 149.546 151.06 134.4 143.884 134C154.241 125.982 169.531 132.523 171.857 143.46Z" fill="#263238"/>
<path d="M161.41 213.586C161.117 213.586 160.835 213.478 160.616 213.284C160.397 213.089 160.257 212.821 160.223 212.53C157.574 190.236 160.913 136.982 188.224 114.653C188.344 114.544 188.486 114.459 188.64 114.406C188.794 114.353 188.957 114.332 189.12 114.344C189.283 114.355 189.441 114.4 189.586 114.476C189.73 114.551 189.858 114.655 189.961 114.781C190.065 114.907 190.141 115.053 190.186 115.21C190.231 115.366 190.244 115.531 190.223 115.692C190.202 115.854 190.149 116.01 190.066 116.15C189.984 116.291 189.873 116.413 189.742 116.509C163.218 138.203 160.003 190.381 162.604 212.247C162.639 212.562 162.549 212.879 162.352 213.128C162.156 213.377 161.87 213.539 161.555 213.579L161.41 213.586Z" fill="#FF6600"/>
<path d="M151.681 242.207H171.125C171.777 242.207 172.41 241.985 172.919 241.577C173.429 241.17 173.784 240.601 173.927 239.964L182.041 203.994C182.135 203.574 182.133 203.137 182.036 202.717C181.939 202.297 181.748 201.904 181.479 201.568C181.209 201.231 180.867 200.959 180.478 200.773C180.09 200.586 179.664 200.489 179.233 200.489H143.573C143.142 200.489 142.717 200.586 142.328 200.772C141.94 200.959 141.598 201.231 141.329 201.568C141.06 201.904 140.87 202.297 140.774 202.717C140.677 203.138 140.677 203.574 140.772 203.994L148.88 239.971C149.025 240.606 149.381 241.172 149.89 241.578C150.398 241.984 151.03 242.206 151.681 242.207Z" fill="#FF6600"/>
<path opacity="0.6" d="M151.681 242.207H171.125C171.777 242.207 172.41 241.985 172.919 241.577C173.429 241.17 173.784 240.601 173.927 239.964L182.041 203.994C182.135 203.574 182.133 203.137 182.036 202.717C181.939 202.297 181.748 201.904 181.479 201.568C181.209 201.231 180.867 200.959 180.478 200.773C180.09 200.586 179.664 200.489 179.233 200.489H143.573C143.142 200.489 142.717 200.586 142.328 200.772C141.94 200.959 141.598 201.231 141.329 201.568C141.06 201.904 140.87 202.297 140.774 202.717C140.677 203.138 140.677 203.574 140.772 203.994L148.88 239.971C149.025 240.606 149.381 241.172 149.89 241.578C150.398 241.984 151.03 242.206 151.681 242.207Z" fill="white"/>
<path d="M169.69 145.703C169.597 145.702 169.505 145.69 169.414 145.669C169.262 145.633 169.117 145.567 168.99 145.476C168.863 145.385 168.754 145.269 168.672 145.136C168.589 145.002 168.534 144.854 168.508 144.699C168.483 144.544 168.488 144.386 168.524 144.234C168.524 144.061 172.423 127.094 166.496 117.123C166.334 116.849 166.287 116.521 166.367 116.213C166.446 115.904 166.645 115.64 166.92 115.478C167.194 115.316 167.522 115.27 167.831 115.349C168.139 115.429 168.404 115.628 168.566 115.902C175.01 126.701 171.07 144.061 170.884 144.751C170.826 145.024 170.676 145.268 170.458 145.441C170.24 145.615 169.969 145.708 169.69 145.703Z" fill="#FF6600"/>
<path d="M179.778 110.499C179.295 121.332 202.81 126.5 210.345 121.919C217.88 117.337 212.56 102.599 224.738 102.488C204.376 94.243 180.247 99.9562 179.778 110.499Z" fill="#FF6600"/>
<path d="M174.085 112.079C178.557 120.904 166.24 126.121 159.927 122.671C153.613 119.221 151.108 106.952 143.684 107.401C152.868 99.8316 169.731 103.489 174.085 112.079Z" fill="#FF6600"/>
<path d="M160.72 195.362H160.672C160.355 195.348 160.057 195.21 159.841 194.977C159.626 194.745 159.51 194.437 159.519 194.12C159.519 193.941 160.051 176.07 150.011 173.91C149.701 173.844 149.43 173.656 149.258 173.39C149.086 173.123 149.027 172.799 149.094 172.489C149.16 172.179 149.348 171.908 149.614 171.736C149.881 171.564 150.205 171.504 150.515 171.571C162.514 174.145 161.948 193.389 161.914 194.21C161.903 194.52 161.773 194.813 161.55 195.028C161.327 195.243 161.03 195.363 160.72 195.362Z" fill="#FF6600"/>
<path d="M157.339 169.797C160.458 175.579 150.895 182.624 146.168 181.527C141.442 180.43 139.958 171.439 134.279 173.606C141.552 165.45 154.303 164.174 157.339 169.797Z" fill="#FF6600"/>
<path d="M161.955 178.458C161.868 178.468 161.78 178.468 161.693 178.458C161.384 178.387 161.116 178.198 160.945 177.93C160.775 177.663 160.716 177.34 160.782 177.03C160.962 176.216 165.336 157.054 178.405 151.955C178.553 151.89 178.713 151.855 178.876 151.853C179.038 151.851 179.199 151.882 179.349 151.943C179.499 152.005 179.635 152.097 179.748 152.213C179.862 152.329 179.951 152.467 180.01 152.618C180.068 152.769 180.096 152.931 180.091 153.093C180.085 153.255 180.047 153.415 179.978 153.562C179.909 153.709 179.812 153.84 179.691 153.948C179.57 154.056 179.428 154.139 179.274 154.191C167.386 158.828 163.163 177.361 163.121 177.547C163.058 177.808 162.908 178.04 162.696 178.205C162.485 178.37 162.224 178.46 161.955 178.458Z" fill="#FF6600"/>
<path d="M176.307 145.662C166.889 150.588 173.244 161.118 180.585 161.532C187.927 161.946 198.042 153.19 203.68 157.344C201.375 146.49 185.484 140.866 176.307 145.662Z" fill="#FF6600"/>
<path d="M98.4615 104.103C98.1612 103.88 97.9614 103.547 97.9058 103.177C97.8502 102.808 97.9433 102.431 98.1648 102.13L157.546 21.3443C157.769 21.0441 158.102 20.8443 158.472 20.7887C158.841 20.7331 159.218 20.8262 159.52 21.0476C159.82 21.2705 160.02 21.6033 160.075 21.9731C160.131 22.3429 160.038 22.7197 159.816 23.021L100.435 103.799C100.328 103.952 100.191 104.082 100.033 104.181C99.8744 104.28 99.6976 104.345 99.5132 104.373C99.3287 104.402 99.1404 104.392 98.9596 104.346C98.7788 104.299 98.6094 104.217 98.4615 104.103Z" fill="#FF6600"/>
<path d="M188.545 57.1057L186.343 60.1294L186.913 60.5446L189.115 57.521L188.545 57.1057Z" fill="#FF6600"/>
<path d="M191.473 55.7403L190.901 55.3263C191.602 54.3682 191.896 53.1712 191.718 51.9972C191.539 50.8231 190.903 49.7674 189.948 49.0611L174.824 37.9452L175.238 37.3794L190.39 48.4746C190.939 48.8801 191.402 49.3898 191.754 49.9746C192.105 50.5594 192.338 51.2079 192.439 51.8827C192.539 52.5576 192.506 53.2457 192.34 53.9077C192.175 54.5696 191.88 55.1924 191.473 55.7403Z" fill="#FF6600"/>
<path d="M166.24 81.3328L100 32.6533C99.7124 32.4418 99.4691 32.1757 99.2842 31.8701C99.0993 31.5645 98.9765 31.2255 98.9227 30.8725C98.8688 30.5194 98.8851 30.1592 98.9705 29.8124C99.056 29.4656 99.2089 29.1391 99.4206 28.8514L118.892 2.36232C119.103 2.0738 119.369 1.82982 119.675 1.64441C119.98 1.459 120.319 1.33581 120.673 1.28195C121.026 1.22809 121.387 1.2446 121.734 1.33054C122.08 1.41648 122.407 1.57016 122.694 1.78272L188.934 50.4622C189.222 50.6731 189.465 50.9386 189.65 51.2436C189.835 51.5486 189.957 51.887 190.011 52.2395C190.065 52.592 190.049 52.9517 189.964 53.2979C189.878 53.6441 189.725 53.9701 189.514 54.2572L170.042 80.7532C169.831 81.0417 169.565 81.2857 169.26 81.4711C168.954 81.6566 168.615 81.7797 168.262 81.8336C167.908 81.8875 167.548 81.8709 167.201 81.785C166.854 81.6991 166.527 81.5454 166.24 81.3328Z" fill="white"/>
<path d="M167.813 82.2159C167.161 82.2151 166.526 82.0073 165.999 81.6225L99.7587 32.9361C99.4325 32.6985 99.1565 32.3986 98.9467 32.0537C98.737 31.7089 98.5976 31.3259 98.5367 30.9268C98.4757 30.5278 98.4944 30.1207 98.5916 29.7289C98.6889 29.3372 98.8628 28.9685 99.1032 28.6443L118.575 2.14835C119.053 1.48853 119.774 1.04534 120.578 0.915983C121.383 0.78663 122.206 0.981679 122.867 1.45835L189.107 50.1447C189.76 50.6279 190.197 51.3495 190.321 52.1526C190.384 52.5518 190.366 52.9595 190.269 53.3516C190.171 53.7438 189.997 54.1127 189.755 54.4365L170.284 80.9325C169.8 81.5861 169.079 82.0225 168.276 82.1469C168.123 82.1798 167.969 82.2028 167.813 82.2159ZM166.433 81.0498C166.93 81.4128 167.549 81.5669 168.157 81.4792C168.766 81.3915 169.316 81.069 169.69 80.5806L189.169 54.0846C189.539 53.5804 189.694 52.9497 189.6 52.3313C189.505 51.7128 189.169 51.1571 188.665 50.7864L122.425 2.10005C122.176 1.91575 121.893 1.78254 121.592 1.70809C121.291 1.63364 120.978 1.61941 120.671 1.66622C120.365 1.71303 120.071 1.81995 119.806 1.98084C119.541 2.14174 119.31 2.35342 119.127 2.60374L99.6483 29.0997C99.2775 29.6035 99.1212 30.2337 99.2136 30.8523C99.2593 31.1595 99.3658 31.4544 99.527 31.7198C99.6881 31.9852 99.9006 32.2158 100.152 32.3979L166.433 81.0498Z" fill="#FF6600"/>
<path d="M116.181 55.9752C116.45 56.5548 116.629 56.9688 116.829 57.4518C117.029 57.9348 117.202 58.3833 117.381 58.8318C117.74 59.7564 118.071 60.6948 118.347 61.6332C118.937 63.5147 119.425 65.4265 119.81 67.3602C120.017 68.3262 120.176 69.306 120.334 70.2858C120.493 71.2656 120.597 72.2661 120.673 73.2666C120.851 75.2854 120.895 77.3139 120.804 79.3386V79.6836C120.797 79.9051 120.764 80.125 120.707 80.3391C120.35 81.7056 119.757 82.9993 118.954 84.1617C118.33 85.079 117.638 85.9486 116.884 86.763C115.544 88.2285 114.093 89.5895 112.544 90.834C111.054 92.0415 109.529 93.1593 107.97 94.2012C106.409 95.2474 104.797 96.2146 103.14 97.0992C102.587 97.3959 101.947 97.4863 101.334 97.3543C100.72 97.2223 100.174 96.8765 99.7924 96.3787C99.4108 95.8809 99.2187 95.2636 99.2504 94.6371C99.2821 94.0106 99.5357 93.4159 99.9656 92.9592L100.021 92.8971L103.595 89.04C104.775 87.7428 105.934 86.4525 107.045 85.1484C108.103 83.9076 109.093 82.6109 110.012 81.2637C110.408 80.687 110.759 80.0803 111.061 79.449C111.256 79.1027 111.378 78.7199 111.42 78.3243L111.316 79.3317C111.178 77.7309 111.013 76.1301 110.716 74.5017C110.419 72.8733 110.088 71.2725 109.66 69.6717C109.232 68.0709 108.777 66.4494 108.28 64.8417C108.018 64.0482 107.735 63.2616 107.466 62.4819L107.038 61.3296L106.638 60.2808L106.534 60.0117C106.065 58.7384 106.104 57.3328 106.644 56.0877C107.185 54.8427 108.185 53.854 109.436 53.3276C110.687 52.8012 112.093 52.7777 113.361 53.2619C114.629 53.746 115.661 54.7006 116.243 55.9269L116.181 55.9752Z" fill="#B55B52"/>
<path d="M81.8809 16.5491C77.4166 20.8271 77.9755 41.741 79.8109 61.6406C81.6463 81.5402 98.503 78.2489 104.761 69.6239C113.041 58.1561 103.726 40.9889 105.065 34.2269C106.521 26.8784 107.611 18.5639 98.7928 13.5269C89.2156 8.04143 80.9149 12.1814 81.8809 16.5491Z" fill="#263238"/>
<path d="M78.7345 63.5308H78.7C78.6005 63.5204 78.509 63.471 78.4457 63.3934C78.3824 63.3159 78.3523 63.2165 78.3619 63.1168C78.9208 57.5968 78.4102 50.4139 77.9203 43.4725C76.9957 30.4315 76.1194 18.1081 81.9775 16.1899C82.0246 16.1738 82.0744 16.1674 82.1241 16.1708C82.1737 16.1743 82.2222 16.1877 82.2665 16.2102C82.3109 16.2327 82.3503 16.2639 82.3825 16.3019C82.4146 16.3399 82.4388 16.3839 82.4536 16.4314C82.4842 16.5266 82.476 16.63 82.4307 16.7191C82.3855 16.8083 82.307 16.876 82.2121 16.9075C76.9198 18.6394 77.8099 31.2388 78.6724 43.4242C79.1692 50.3932 79.6798 57.5968 79.114 63.1927C79.1038 63.286 79.0593 63.3722 78.9892 63.4347C78.9191 63.4971 78.8284 63.5314 78.7345 63.5308Z" fill="#263238"/>
<path d="M87.0006 59.0732L85.2963 63.9032C84.7236 65.5385 84.1854 67.1738 83.6541 68.8022C83.1228 70.4306 82.6398 72.059 82.1982 73.6322C81.7566 75.2054 81.384 76.8269 81.1149 78.3449V77.5583C81.0817 78.4133 81.196 79.2676 81.453 80.0837C81.6048 80.546 81.7842 81.0221 81.9981 81.5189C82.212 82.0157 82.4949 82.4918 82.7847 82.9955C83.4017 84.0357 84.0936 85.0296 84.8547 85.9694C85.248 86.4593 85.662 86.9492 86.0967 87.4253L87.3594 88.8053L87.6354 89.102C88.0347 89.5442 88.272 90.1088 88.3084 90.7034C88.3448 91.298 88.1781 91.8874 87.8357 92.3749C87.4933 92.8624 86.9955 93.2192 86.4239 93.3868C85.8522 93.5543 85.2405 93.5228 84.6891 93.2972C84.2337 93.104 83.9025 92.9729 83.5299 92.8004C83.1573 92.6279 82.8399 92.4623 82.4604 92.276C81.7658 91.908 81.0758 91.5078 80.3904 91.0754C79.0194 90.1845 77.7431 89.1557 76.5816 88.0049C75.3249 86.7516 74.2475 85.3305 73.38 83.7821C72.9235 82.9337 72.5358 82.0499 72.2208 81.1394C71.8929 80.1734 71.6617 79.1772 71.5308 78.1655C71.5206 78.0507 71.5206 77.9353 71.5308 77.8205V77.3789C71.8105 73.4849 72.4714 69.6278 73.5042 65.8628C73.9734 64.0343 74.5323 62.2403 75.1119 60.4601C75.6915 58.6799 76.3194 56.9687 77.0853 55.1471C77.6066 53.8703 78.6076 52.8486 79.8735 52.3012C81.1394 51.7538 82.5694 51.7243 83.8568 52.219C85.1442 52.7137 86.1865 53.6933 86.76 54.9476C87.3335 56.2019 87.3927 57.6309 86.9247 58.9283L87.0006 59.0732Z" fill="#B55B52"/>
<path d="M84.8201 48.689C79.3001 49.7309 78.1478 51.9803 74.0975 60.3362C75.3188 65.8562 83.0054 70.6862 83.0054 70.6862C83.0054 70.6862 93.8729 55.8029 84.8201 48.689Z" fill="#FF6600"/>
<path d="M76.071 59.1005C75.9813 62.033 76.2711 65.5796 76.9266 72.5555C77.3751 78.4688 75.8985 89.7089 77.7615 90.4955H107.59C108.19 82.0292 107.97 76.1987 113.324 57.2996C113.64 56.3114 113.731 55.2651 113.589 54.2372C113.448 53.2094 113.079 52.2262 112.509 51.3596C111.939 50.4929 111.182 49.7648 110.294 49.2286C109.406 48.6924 108.409 48.3617 107.376 48.2606C106.189 48.1433 104.941 48.0398 103.65 47.9777C99.1434 47.6565 94.6194 47.6565 90.1125 47.9777C88.6428 48.1157 87.1179 48.302 85.6551 48.5021C83.0759 48.8821 80.7092 50.1473 78.9606 52.081C77.212 54.0146 76.1905 56.4962 76.071 59.1005Z" fill="#FF6600"/>
<path d="M89.6502 55.2782C89.4984 55.8371 89.1672 56.2304 88.9602 56.1614C88.7532 56.0924 88.6428 55.5887 88.8015 55.0298C88.9602 54.4709 89.2776 54.0845 89.526 54.1535C89.7744 54.2225 89.8158 54.7262 89.6502 55.2782Z" fill="white"/>
<path d="M88.5601 59.8802C88.4842 60.4529 88.222 60.8945 87.9736 60.86C87.7252 60.8255 87.5734 60.3425 87.6424 59.7698C87.7114 59.1971 87.9736 58.7555 88.2289 58.79C88.4842 58.8245 88.6291 59.3144 88.5601 59.8802Z" fill="white"/>
<path d="M100.78 33.2397C100.649 37.7454 100.09 45.1077 102.905 48.0126C102.905 48.0126 98.7651 47.3986 90.0159 52.8426C87.4767 49.1994 89.3604 48.0126 89.3604 48.0126C91.8582 47.5573 94.0386 45.018 92.6724 41.8647L100.78 33.2397Z" fill="#B55B52"/>
<path d="M91.8582 51.7246C94.7424 52.1317 95.6463 56.4925 95.6463 56.4925C95.6463 56.4925 102.546 51.5866 104.775 48.1297C103.903 47.6387 103.058 47.102 102.243 46.522C102.243 46.522 93.5418 50.0548 91.8582 51.7246Z" fill="white"/>
<path d="M89.112 51.2556C89.112 51.2556 86.8212 51.7524 85.662 54.9402C84.972 48.5853 88.0149 47.9988 88.0149 47.9988C88.8093 47.5593 89.7374 47.4267 90.6231 47.6262C89.9884 47.961 89.4902 48.5065 89.2144 49.169C88.9386 49.8315 88.9024 50.5694 89.112 51.2556Z" fill="white"/>
<path opacity="0.2" d="M95.7085 39.1801L94.57 39.8701L92.6725 41.8849C93.1631 42.9129 93.23 44.0925 92.8587 45.1693C95.0184 44.3275 97.1989 42.637 97.7785 40.8085V40.7671C97.869 40.4948 97.8724 40.201 97.7882 39.9267C97.704 39.6524 97.5363 39.4111 97.3086 39.2365C97.0808 39.0619 96.8043 38.9626 96.5175 38.9525C96.2307 38.9424 95.9479 39.022 95.7085 39.1801Z" fill="black"/>
<path d="M99.31 22.6756C101.38 29.5204 102.415 32.3356 100.414 37.2139C97.4125 44.5072 88.8151 45.97 84.7924 39.9739C81.1768 34.5781 78.3754 24.2833 83.7298 18.8737C89.0842 13.4641 97.24 15.8239 99.31 22.6756Z" fill="#B55B52"/>
<path d="M89.9953 28.8719C90.1954 29.4377 90.0712 30.0174 89.7193 30.1692C89.3674 30.321 88.9189 29.9828 88.7188 29.417C88.5187 28.8512 88.6429 28.2647 88.9948 28.1129C89.3467 27.9611 89.7952 28.2992 89.9953 28.8719Z" fill="#263238"/>
<path d="M83.4403 31.8187C83.6404 32.3845 83.5162 32.971 83.1643 33.1228C82.8124 33.2746 82.3708 32.9365 82.1707 32.3638C81.9706 31.7911 82.0948 31.2184 82.4467 31.0666C82.7986 30.9148 83.2264 31.2529 83.4403 31.8187Z" fill="#263238"/>
<path d="M82.5982 31.0312L81.17 31.1899C81.17 31.1899 82.2049 31.9697 82.5982 31.0312Z" fill="#263238"/>
<path d="M85.3585 31.4946C85.3334 32.9993 85.1178 34.4947 84.7168 35.9451C85.6759 36.3384 86.7868 35.4966 86.7868 35.4966L85.3585 31.4946Z" fill="#A02724"/>
<path d="M89.8709 35.5786C90.1961 35.5146 90.5263 35.4799 90.8576 35.4751C90.88 35.4751 90.9021 35.4796 90.9226 35.4883C90.9432 35.4971 90.9618 35.5099 90.9772 35.526C90.9927 35.5421 91.0047 35.5612 91.0127 35.5821C91.0206 35.603 91.0242 35.6253 91.0232 35.6476C91.0198 35.6952 90.9989 35.7399 90.9645 35.7731C90.9301 35.8062 90.8847 35.8254 90.8369 35.827C90.0893 35.8367 89.3534 36.014 88.6834 36.346C88.0134 36.678 87.4266 37.1562 86.966 37.7452C86.9538 37.7633 86.9381 37.7789 86.9199 37.7909C86.9016 37.803 86.8812 37.8113 86.8597 37.8155C86.8383 37.8197 86.8162 37.8196 86.7948 37.8152C86.7733 37.8108 86.753 37.8023 86.7349 37.7901C86.7167 37.7778 86.7012 37.7621 86.6892 37.7439C86.6771 37.7257 86.6687 37.7052 86.6646 37.6838C86.6604 37.6623 86.6605 37.6402 86.6649 37.6188C86.6692 37.5974 86.6778 37.577 86.69 37.5589C87.4676 36.5266 88.6015 35.8207 89.8709 35.5786Z" fill="#263238"/>
<path d="M102.864 27.1603C102.904 27.842 102.803 28.5248 102.565 29.1651C102.328 29.8054 101.959 30.3892 101.484 30.8794C100.249 32.0317 98.7237 30.7069 98.3304 28.8094C97.9716 27.0844 98.1855 24.4141 99.7863 24.0208C101.387 23.6275 102.815 25.318 102.864 27.1603Z" fill="#FFB573"/>
<path d="M93.7902 15.9273C88.6152 21.4887 95.5566 34.6539 94.8459 44.1207C93.9834 55.7265 101.097 57.4308 105.575 48.1365C102.243 39.3459 105.686 26.1807 104.789 21.5646C103.747 16.2723 97.4679 13.3467 93.7902 15.9273Z" fill="#263238"/>
<path d="M87.0902 24.2417C87.1357 24.2355 87.182 24.2391 87.226 24.2522C87.27 24.2653 87.3108 24.2876 87.3455 24.3176C87.6574 24.6069 88.0365 24.8139 88.4485 24.92C88.8605 25.026 89.2925 25.0276 89.7053 24.9248C89.7474 24.9111 89.7919 24.9063 89.8359 24.9105C89.88 24.9146 89.9227 24.9278 89.9615 24.9491C90.0003 24.9705 90.0343 24.9995 90.0614 25.0345C90.0886 25.0695 90.1083 25.1096 90.1193 25.1525C90.1399 25.2447 90.126 25.3412 90.0802 25.4239C90.0344 25.5065 89.96 25.5695 89.8709 25.601C89.3499 25.7387 88.8026 25.7433 88.2793 25.6143C87.756 25.4853 87.2736 25.2269 86.8763 24.8627C86.828 24.8142 86.7943 24.7532 86.779 24.6865C86.7637 24.6198 86.7673 24.5502 86.7896 24.4855C86.8119 24.4208 86.8519 24.3637 86.905 24.3206C86.9581 24.2775 87.0223 24.2501 87.0902 24.2417Z" fill="#263238"/>
<path d="M80.28 29.9139C80.2395 29.9308 80.1961 29.9395 80.1523 29.9395C80.1085 29.9395 80.0651 29.9308 80.0247 29.9139C79.9402 29.8773 79.873 29.8096 79.837 29.7248C79.8011 29.64 79.7991 29.5447 79.8315 29.4585C80.0088 28.9219 80.3069 28.4333 80.7029 28.0301C81.0988 27.627 81.5821 27.3201 82.1154 27.1332C82.1585 27.1209 82.2038 27.1179 82.2481 27.1244C82.2925 27.1309 82.335 27.1468 82.3728 27.1709C82.4106 27.195 82.4429 27.2269 82.4675 27.2644C82.4921 27.3019 82.5085 27.3442 82.5156 27.3885C82.5366 27.4808 82.5211 27.5777 82.4722 27.6587C82.4233 27.7398 82.3448 27.7988 82.2534 27.8232C81.8344 27.979 81.456 28.2275 81.1466 28.5501C80.8371 28.8727 80.6045 29.2611 80.4663 29.6862C80.4527 29.735 80.4291 29.7804 80.397 29.8196C80.3649 29.8588 80.3251 29.8909 80.28 29.9139Z" fill="#263238"/>
<path d="M89.1602 28.0786L87.7319 28.2442C87.7319 28.2442 88.7669 29.0239 89.1602 28.0786Z" fill="#263238"/>
<path d="M107.645 48.3296C112.475 49.0817 114.442 50.5583 118.409 60.3149C116.608 63.9512 108.549 73.1627 108.549 73.1627C108.549 73.1627 101.573 55.4366 107.645 48.3296Z" fill="#FF6600"/>
<path d="M112.641 237.211C115.525 232.608 115.656 231.339 117.533 228.931C119.134 226.861 119.141 227.019 121.107 225.239C122.412 224.059 121.335 222.369 119.914 221.651C118.803 221.099 117.595 220.609 116.257 219.871L111.137 224.515C112.027 227.158 111.53 232.657 109.584 236.307C108.198 238.908 111.489 239.046 112.641 237.211Z" fill="#263238"/>
<path d="M77.7616 90.5303C77.7616 90.5303 77.0716 127.728 76.2229 153.106C76.0631 158.194 77.1679 163.241 79.4383 167.796C88.4083 185.805 110.764 224.949 110.764 224.949C111.661 225.736 115.939 221.127 116.284 219.857C116.284 219.857 104.126 170.391 93.3487 159.309C107.673 119.669 103.781 90.5303 103.781 90.5303H77.7616Z" fill="#263238"/>
<g opacity="0.2">
<path opacity="0.2" d="M103.878 91.6206L89.8227 92.6142C89.8227 92.6142 92.1135 133.469 94.3491 156.377C105.927 122.671 104.389 97.1406 103.878 91.6206Z" fill="black"/>
<path opacity="0.2" d="M94.8251 161.083C96.0809 172.813 97.3781 188.117 97.9646 202.234C102.574 210.514 106.707 217.807 108.963 221.775C110.06 216.855 111.233 210.983 112.172 204.76C108.018 190.366 101.29 169.659 94.8251 161.083Z" fill="black"/>
</g>
<path d="M108.018 223.018C108.522 223.653 109.398 224.784 110.047 225.654C110.153 225.782 110.303 225.868 110.468 225.894C110.633 225.921 110.802 225.887 110.944 225.798C113.116 224.092 115.125 222.189 116.947 220.113C117.035 220.012 117.089 219.886 117.103 219.752C117.117 219.619 117.088 219.484 117.023 219.368L115.56 216.766C115.512 216.684 115.448 216.613 115.37 216.559C115.292 216.504 115.204 216.468 115.11 216.451C115.017 216.435 114.921 216.439 114.829 216.464C114.738 216.488 114.652 216.533 114.58 216.594L108.101 222.114C108.036 222.168 107.982 222.234 107.943 222.308C107.904 222.383 107.88 222.465 107.872 222.549C107.864 222.633 107.873 222.717 107.898 222.798C107.923 222.878 107.964 222.953 108.018 223.018Z" fill="#FF6600"/>
<path opacity="0.3" d="M108.018 223.018C108.522 223.653 109.398 224.784 110.047 225.654C110.153 225.782 110.303 225.868 110.468 225.894C110.633 225.921 110.802 225.887 110.944 225.798C113.116 224.092 115.125 222.189 116.947 220.113C117.035 220.012 117.089 219.886 117.103 219.752C117.117 219.619 117.088 219.484 117.023 219.368L115.56 216.766C115.512 216.684 115.448 216.613 115.37 216.559C115.292 216.504 115.204 216.468 115.11 216.451C115.017 216.435 114.921 216.439 114.829 216.464C114.738 216.488 114.652 216.533 114.58 216.594L108.101 222.114C108.036 222.168 107.982 222.234 107.943 222.308C107.904 222.383 107.88 222.465 107.872 222.549C107.864 222.633 107.873 222.717 107.898 222.798C107.923 222.878 107.964 222.953 108.018 223.018Z" fill="white"/>
<path d="M94.0662 242.199C99.5862 242.199 101.698 242.109 104.816 242.006C107.48 241.916 108.087 242.247 110.226 242.199C112.013 242.158 112.103 240.453 111.73 238.487C111.544 237.5 111.226 236.293 110.992 234.699H102.601C101.263 236.872 96.3501 238.508 93.1968 238.922C90.1953 239.322 91.8651 242.199 94.0662 242.199Z" fill="#263238"/>
<path d="M85.5584 90.5305C85.5584 90.5305 94.2317 138.299 97.4126 159.931C100.752 182.701 104.865 219.574 102.601 234.678C103.83 235.43 108.37 235.479 110.992 234.678C110.992 234.678 122.549 185.088 113.179 160.938C119.479 107.725 110.157 104.951 107.583 90.5098L85.5584 90.5305Z" fill="#263238"/>
<path d="M102.257 231.553C102.137 232.6 101.946 233.637 101.684 234.658C101.657 234.739 101.648 234.824 101.657 234.909C101.667 234.994 101.695 235.075 101.74 235.148C101.785 235.22 101.845 235.282 101.916 235.328C101.988 235.375 102.069 235.405 102.153 235.417C105.182 235.914 109.688 235.196 111.123 234.948C111.261 234.926 111.388 234.862 111.489 234.766C111.59 234.67 111.66 234.546 111.689 234.409L112.413 231.511C112.44 231.422 112.444 231.328 112.427 231.236C112.41 231.144 112.371 231.058 112.313 230.985C112.256 230.911 112.182 230.852 112.097 230.813C112.013 230.774 111.92 230.755 111.827 230.759L102.947 230.932C102.775 230.931 102.609 230.994 102.481 231.109C102.354 231.224 102.274 231.382 102.257 231.553Z" fill="#FF6600"/>
<path opacity="0.3" d="M102.257 231.553C102.137 232.6 101.946 233.637 101.684 234.658C101.657 234.739 101.648 234.824 101.657 234.909C101.667 234.994 101.695 235.075 101.74 235.148C101.785 235.22 101.845 235.282 101.916 235.328C101.988 235.375 102.069 235.405 102.153 235.417C105.182 235.914 109.688 235.196 111.123 234.948C111.261 234.926 111.388 234.862 111.489 234.766C111.59 234.67 111.66 234.546 111.689 234.409L112.413 231.511C112.44 231.422 112.444 231.328 112.427 231.236C112.41 231.144 112.371 231.058 112.313 230.985C112.256 230.911 112.182 230.852 112.097 230.813C112.013 230.774 111.92 230.755 111.827 230.759L102.947 230.932C102.775 230.931 102.609 230.994 102.481 231.109C102.354 231.224 102.274 231.382 102.257 231.553Z" fill="white"/>
<path d="M93.6798 14.8792C99.5517 23.38 83.3298 20.3233 79.797 28.3135C79.8108 20.3233 80.4732 14.1547 93.6798 14.8792Z" fill="#263238"/>
<path d="M107.59 90.53C99.0272 92.3378 81.1769 96.4916 77.7683 90.53C79.9901 89.0051 102.636 89.2811 107.59 90.53Z" fill="#FF6600"/>
<path d="M87.1247 95.2087C86.5589 95.2087 86.0276 95.2088 85.5446 95.1674C79.9694 94.8776 78.3755 93.1664 78.3134 93.0974C78.2955 93.0806 78.2811 93.0603 78.2713 93.0377C78.2616 93.0152 78.2565 92.9908 78.2565 92.9662C78.2565 92.9417 78.2616 92.9173 78.2713 92.8948C78.2811 92.8722 78.2955 92.8519 78.3134 92.8351C78.3483 92.8006 78.3954 92.7812 78.4445 92.7812C78.4936 92.7812 78.5407 92.8006 78.5756 92.8351C78.5756 92.8351 80.1626 94.498 85.5515 94.7878C90.9404 95.0776 103.216 93.5596 106.942 91.8208C106.988 91.8011 107.039 91.7994 107.087 91.816C107.134 91.8326 107.173 91.8663 107.197 91.9105C107.216 91.9574 107.217 92.0099 107.199 92.0572C107.181 92.1046 107.146 92.1434 107.1 92.1658C103.602 93.8149 93.176 95.2087 87.1247 95.2087Z" fill="white"/>
<path d="M85.0826 108.691C84.8969 108.685 84.7181 108.62 84.572 108.505C81.812 106.559 84.4271 97.0441 85.8968 94.4497C85.9172 94.4147 85.9482 94.387 85.9854 94.3705C86.0225 94.3541 86.0638 94.3498 86.1036 94.3582C86.1433 94.3666 86.1793 94.3873 86.2066 94.4173C86.2339 94.4474 86.251 94.4853 86.2556 94.5256C86.3591 95.8573 87.2423 107.553 85.4138 108.602C85.3134 108.661 85.199 108.692 85.0826 108.691ZM85.9244 95.2294C84.4754 98.3965 82.4744 106.594 84.7859 108.195C85.0205 108.36 85.1516 108.319 85.2275 108.277C86.4005 107.601 86.297 100.349 85.9244 95.2294Z" fill="white"/>
<path d="M88.001 106.435C87.8564 106.43 87.7139 106.4 87.5801 106.345C84.3923 105.089 85.0823 97.2579 85.8827 94.491C85.8947 94.4536 85.9175 94.4206 85.9481 94.3961C85.9788 94.3715 86.016 94.3566 86.0552 94.353C86.0948 94.3537 86.1335 94.3657 86.1665 94.3878C86.1996 94.4098 86.2256 94.4408 86.2415 94.4772C86.621 95.5398 89.9054 104.869 88.4909 106.242C88.3595 106.368 88.1834 106.438 88.001 106.435ZM86.0897 95.1879C85.3514 98.3964 85.0685 104.951 87.7181 105.993C88.0631 106.131 88.1873 105.993 88.2287 105.993C89.1257 105.103 87.5111 99.2589 86.0897 95.1879Z" fill="white"/>
<path d="M83.0194 101.812C82.9745 101.812 82.9308 101.797 82.8966 101.767C82.8623 101.738 82.8398 101.698 82.8331 101.653C82.5019 99.5348 84.5443 94.8359 86.0071 94.3667C86.0302 94.3582 86.0548 94.3544 86.0793 94.3557C86.1039 94.357 86.1279 94.3634 86.1499 94.3744C86.1719 94.3854 86.1914 94.4008 86.2072 94.4197C86.223 94.4385 86.2348 94.4604 86.2417 94.484C86.2573 94.5316 86.2538 94.5834 86.2319 94.6285C86.21 94.6735 86.1715 94.7083 86.1244 94.7255C84.841 95.1326 82.909 99.6935 83.2057 101.626C83.2118 101.675 83.1987 101.724 83.1691 101.764C83.1396 101.804 83.0959 101.831 83.047 101.839L83.0194 101.812Z" fill="white"/>
<path d="M123.354 25.6226L120.705 29.1128C120.44 29.1631 120.088 29.166 119.65 29.1214C119.218 29.076 118.728 28.9461 118.179 28.7319C117.63 28.5177 117.05 28.1788 116.439 27.7151C115.875 27.2869 115.431 26.809 115.108 26.2815C114.788 25.7501 114.595 25.1838 114.53 24.5826C114.472 23.9804 114.547 23.3565 114.755 22.711C114.97 22.0644 115.328 21.4104 115.83 20.749L116.189 20.2762C116.691 19.6147 117.227 19.0951 117.796 18.7174C118.364 18.3396 118.943 18.0982 119.532 17.9931C120.128 17.8871 120.715 17.9096 121.293 18.0604C121.875 18.2142 122.431 18.492 122.96 18.8936C123.743 19.4873 124.284 20.0947 124.585 20.7158C124.89 21.3331 125.003 21.9556 124.925 22.5834C124.85 23.2072 124.624 23.8239 124.248 24.4333L122.281 22.9404C122.454 22.6307 122.561 22.3372 122.599 22.06C122.645 21.7818 122.607 21.5168 122.485 21.265C122.366 21.0093 122.15 20.7619 121.834 20.5227C121.589 20.3366 121.326 20.2193 121.044 20.1708C120.765 20.1252 120.475 20.1563 120.172 20.264C119.873 20.3678 119.563 20.5496 119.243 20.8096C118.927 21.0726 118.607 21.4181 118.282 21.8461L117.914 22.3305C117.592 22.7546 117.345 23.1528 117.173 23.525C117.005 23.9002 116.911 24.2495 116.893 24.5727C116.881 24.8951 116.947 25.1964 117.09 25.4766C117.24 25.7559 117.47 26.0137 117.781 26.25C117.999 26.4154 118.199 26.5396 118.382 26.6228C118.567 26.702 118.731 26.7528 118.873 26.7751C119.023 26.7965 119.144 26.8025 119.237 26.7933L120.238 25.4742L118.814 24.3933L119.881 22.9867L123.354 25.6226ZM123.113 27.7213L123.206 27.5987C123.558 27.1357 123.947 26.7598 124.375 26.4711C124.806 26.1786 125.259 25.9858 125.734 25.8927C126.209 25.7997 126.696 25.8167 127.195 25.9437C127.696 26.0667 128.194 26.3158 128.688 26.6909C129.186 27.0689 129.562 27.4829 129.815 27.9328C130.076 28.3817 130.225 28.8477 130.263 29.3305C130.301 29.8134 130.237 30.3015 130.071 30.7949C129.908 31.2844 129.651 31.7607 129.3 32.2237L129.207 32.3463C128.858 32.8055 128.469 33.1813 128.038 33.4739C127.61 33.7626 127.157 33.9554 126.679 34.0523C126.204 34.1453 125.717 34.1283 125.218 34.0014C124.72 33.8744 124.223 33.6234 123.729 33.2483C123.235 32.8732 122.858 32.4612 122.598 32.0123C122.337 31.5633 122.188 31.0974 122.15 30.6145C122.115 30.1278 122.179 29.6396 122.342 29.1501C122.508 28.6567 122.765 28.1804 123.113 27.7213ZM125.173 29.0917L125.08 29.2142C124.9 29.4516 124.749 29.6867 124.628 29.9195C124.506 30.1523 124.427 30.3775 124.391 30.5952C124.357 30.8089 124.378 31.0118 124.453 31.2037C124.528 31.3956 124.671 31.5713 124.881 31.7308C125.087 31.8874 125.291 31.9745 125.492 31.9923C125.697 32.013 125.898 31.9785 126.095 31.8888C126.295 31.7951 126.491 31.6585 126.682 31.4789C126.874 31.2992 127.06 31.0907 127.24 30.8534L127.333 30.7308C127.507 30.5012 127.653 30.272 127.772 30.0431C127.894 29.8103 127.973 29.585 128.009 29.3674C128.048 29.1458 128.032 28.9371 127.96 28.7413C127.888 28.5455 127.746 28.3678 127.536 28.2084C127.33 28.0518 127.123 27.9652 126.915 27.9483C126.711 27.9344 126.507 27.9763 126.305 28.0738C126.105 28.1674 125.909 28.304 125.718 28.4837C125.529 28.6594 125.348 28.8621 125.173 29.0917ZM129.837 32.8248L129.93 32.7022C130.282 32.2392 130.671 31.8633 131.099 31.5746C131.529 31.282 131.982 31.0892 132.458 30.9962C132.933 30.9032 133.42 30.9202 133.918 31.0471C134.42 31.1702 134.918 31.4193 135.412 31.7944C135.91 32.1724 136.286 32.5864 136.539 33.0363C136.799 33.4852 136.949 33.9511 136.987 34.434C137.025 34.9169 136.961 35.405 136.795 35.8984C136.632 36.3879 136.375 36.8642 136.023 37.3272L135.93 37.4498C135.582 37.909 135.192 38.2848 134.762 38.5774C134.334 38.8661 133.881 39.0589 133.403 39.1558C132.927 39.2488 132.441 39.2318 131.942 39.1049C131.443 38.9779 130.947 38.7269 130.453 38.3518C129.959 37.9767 129.582 37.5647 129.321 37.1157C129.061 36.6668 128.912 36.2009 128.874 35.718C128.838 35.2313 128.902 34.7431 129.065 34.2536C129.231 33.7602 129.489 33.2839 129.837 32.8248ZM131.897 34.1952L131.804 34.3177C131.624 34.5551 131.473 34.7902 131.351 35.023C131.23 35.2558 131.151 35.481 131.115 35.6987C131.081 35.9124 131.102 36.1153 131.177 36.3072C131.252 36.4991 131.395 36.6748 131.605 36.8343C131.811 36.9908 132.015 37.078 132.216 37.0958C132.421 37.1165 132.622 37.082 132.819 36.9923C133.019 36.8986 133.214 36.762 133.406 36.5824C133.597 36.4027 133.783 36.1942 133.963 35.9569L134.057 35.8343C134.231 35.6047 134.377 35.3755 134.496 35.1466C134.617 34.9138 134.696 34.6885 134.733 34.4709C134.772 34.2493 134.756 34.0406 134.683 33.8448C134.611 33.649 134.47 33.4713 134.26 33.3119C134.054 33.1553 133.847 33.0686 133.639 33.0518C133.435 33.0379 133.231 33.0798 133.028 33.1773C132.829 33.2709 132.633 33.4075 132.441 33.5872C132.253 33.7629 132.071 33.9656 131.897 34.1952ZM139.187 42.5158L144.893 34.9983L146.872 36.5001L140.067 45.465L138.293 44.1183L139.187 42.5158ZM136.552 37.9399L136.645 37.8174C137.008 37.3388 137.391 36.9428 137.795 36.6296C138.201 36.3124 138.615 36.0901 139.037 35.9626C139.462 35.8312 139.887 35.8043 140.313 35.882C140.738 35.9597 141.151 36.1506 141.552 36.4548C141.91 36.7265 142.16 37.048 142.301 37.4191C142.446 37.7863 142.501 38.1901 142.467 38.6305C142.433 39.071 142.326 39.5354 142.145 40.0238C141.968 40.5084 141.737 41.0019 141.454 41.5044L141.343 41.6503C140.956 42.0311 140.558 42.3664 140.147 42.6561C139.74 42.942 139.331 43.1585 138.919 43.3056C138.506 43.4527 138.101 43.5065 137.701 43.4671C137.309 43.4268 136.932 43.2692 136.57 42.9946C136.169 42.6904 135.875 42.3419 135.689 41.949C135.507 41.5591 135.422 41.1419 135.434 40.6975C135.45 40.2559 135.553 39.8008 135.744 39.3319C135.934 38.8631 136.203 38.3991 136.552 37.9399ZM138.612 39.3103L138.519 39.4329C138.339 39.6702 138.187 39.9019 138.065 40.1279C137.942 40.3538 137.859 40.5727 137.815 40.7844C137.778 40.9952 137.789 41.1907 137.848 41.3708C137.912 41.5539 138.037 41.7163 138.223 41.8581C138.476 42.05 138.73 42.1477 138.985 42.1512C139.244 42.1575 139.497 42.0794 139.743 41.9166C139.993 41.7569 140.226 41.5228 140.442 41.2143L140.792 40.7532C140.994 40.5023 141.148 40.2633 141.253 40.0363C141.361 39.8054 141.418 39.5883 141.425 39.3851C141.436 39.1849 141.397 38.9986 141.307 38.8261C141.224 38.6527 141.089 38.4951 140.902 38.3533C140.719 38.2145 140.531 38.1392 140.338 38.1273C140.148 38.1184 139.955 38.1622 139.76 38.2588C139.567 38.3515 139.373 38.4896 139.178 38.6731C138.987 38.8528 138.798 39.0652 138.612 39.3103ZM151.063 51.3273L149.866 52.9032L145.571 49.6426L146.767 48.0668L151.063 51.3273ZM152.751 41.6984L146.3 50.1964L144.252 48.6414L150.702 40.1434L152.751 41.6984ZM155.409 54.6908L159.037 49.9106L161.01 51.408L156.217 57.7232L154.372 56.3232L155.409 54.6908ZM156.57 53.5485L157.093 53.9267C156.771 54.3508 156.422 54.7054 156.046 54.9905C155.673 55.2717 155.287 55.4692 154.888 55.5832C154.493 55.7001 154.095 55.7232 153.695 55.6525C153.301 55.5809 152.918 55.4033 152.544 55.1198C152.233 54.8835 151.98 54.6237 151.784 54.3402C151.595 54.0558 151.478 53.7493 151.433 53.4207C151.391 53.0883 151.43 52.7344 151.549 52.3589C151.675 51.9825 151.896 51.5861 152.212 51.1698L155.313 47.0842L157.28 48.5772L154.17 52.6744C154.064 52.8145 153.99 52.9484 153.948 53.0762C153.907 53.2039 153.892 53.3279 153.905 53.4482C153.921 53.5645 153.964 53.6771 154.035 53.786C154.113 53.8939 154.216 53.9966 154.344 54.094C154.64 54.3185 154.919 54.432 155.18 54.4345C155.442 54.4369 155.687 54.3563 155.916 54.1925C156.148 54.0316 156.367 53.817 156.57 53.5485ZM161.033 59.171C161.216 59.3098 161.396 59.3948 161.575 59.4261C161.76 59.4565 161.933 59.4346 162.094 59.3602C162.262 59.285 162.411 59.1564 162.543 58.9745L164.393 60.3788C164.037 60.8565 163.604 61.1842 163.095 61.362C162.593 61.5389 162.064 61.573 161.509 61.4643C160.961 61.3546 160.433 61.1078 159.928 60.7239C159.433 60.3488 159.062 59.9412 158.813 59.5011C158.568 59.0571 158.43 58.5966 158.399 58.1197C158.376 57.6418 158.449 57.161 158.62 56.6774C158.795 56.1968 159.055 55.7288 159.401 55.2736L159.502 55.1393C159.848 54.6841 160.229 54.3077 160.645 54.0101C161.068 53.7116 161.511 53.5115 161.974 53.4096C162.445 53.3068 162.924 53.3144 163.411 53.4325C163.904 53.5497 164.396 53.7943 164.886 54.1664C165.412 54.5651 165.799 55.0158 166.05 55.5185C166.304 56.0241 166.402 56.5527 166.345 57.1044C166.288 57.6561 166.054 58.1989 165.643 58.7329L163.793 57.3286C163.941 57.1409 164.042 56.9475 164.095 56.7485C164.148 56.5495 164.142 56.355 164.078 56.1651C164.02 55.9743 163.89 55.8021 163.688 55.6485C163.486 55.4949 163.288 55.4156 163.096 55.4106C162.903 55.4056 162.714 55.4577 162.526 55.5671C162.346 55.6755 162.167 55.822 161.99 56.0066C161.817 56.1941 161.644 56.4027 161.469 56.6323L161.367 56.7665C161.19 57 161.033 57.2272 160.896 57.4482C160.766 57.6682 160.675 57.8812 160.623 58.087C160.574 58.289 160.577 58.482 160.634 58.666C160.694 58.8461 160.826 59.0144 161.033 59.171ZM172.317 55.8051L165.508 64.7759L163.541 63.283L170.351 54.3122L172.317 55.8051ZM174.341 61.5264L169.156 62.6602L166.631 63.0062L166.721 61.1059L169.1 60.4557L171.983 59.7366L174.341 61.5264ZM167.44 66.2423L167.938 62.0845L170.175 62.1546L169.693 67.9523L167.44 66.2423Z" fill="black"/>
</svg>
