<svg width="155" height="155" viewBox="0 0 155 155" fill="none" xmlns="http://www.w3.org/2000/svg">
<rect x="0.811426" y="0.811426" width="152.548" height="152.548" rx="7.30284" stroke="#FF6600" stroke-width="1.62285" stroke-miterlimit="16" stroke-linecap="round" stroke-linejoin="round" stroke-dasharray="93.31 93.31"/>
<g clip-path="url(#clip0_402_893)">
<path d="M142.887 11.2417H11.2416V142.887H142.887V11.2417Z" fill="white"/>
<path d="M20.3631 16.1631H16.163V20.3632H20.3631V16.1631Z" fill="black"/>
<path d="M24.5632 16.1631H20.3631V20.3632H24.5632V16.1631Z" fill="black"/>
<path d="M28.7633 16.1631H24.5632V20.3632H28.7633V16.1631Z" fill="black"/>
<path d="M32.9634 16.1631H28.7633V20.3632H32.9634V16.1631Z" fill="black"/>
<path d="M37.1635 16.1631H32.9634V20.3632H37.1635V16.1631Z" fill="black"/>
<path d="M41.3636 16.1631H37.1635V20.3632H41.3636V16.1631Z" fill="black"/>
<path d="M45.5637 16.1631H41.3636V20.3632H45.5637V16.1631Z" fill="black"/>
<path d="M53.9639 16.1631H49.7638V20.3632H53.9639V16.1631Z" fill="black"/>
<path d="M74.9644 16.1631H70.7643V20.3632H74.9644V16.1631Z" fill="black"/>
<path d="M79.1645 16.1631H74.9644V20.3632H79.1645V16.1631Z" fill="black"/>
<path d="M87.5647 16.1631H83.3646V20.3632H87.5647V16.1631Z" fill="black"/>
<path d="M95.9649 16.1631H91.7648V20.3632H95.9649V16.1631Z" fill="black"/>
<path d="M104.365 16.1631H100.165V20.3632H104.365V16.1631Z" fill="black"/>
<path d="M112.765 16.1631H108.565V20.3632H112.765V16.1631Z" fill="black"/>
<path d="M116.965 16.1631H112.765V20.3632H116.965V16.1631Z" fill="black"/>
<path d="M121.166 16.1631H116.965V20.3632H121.166V16.1631Z" fill="black"/>
<path d="M125.366 16.1631H121.166V20.3632H125.366V16.1631Z" fill="black"/>
<path d="M129.566 16.1631H125.366V20.3632H129.566V16.1631Z" fill="black"/>
<path d="M133.766 16.1631H129.566V20.3632H133.766V16.1631Z" fill="black"/>
<path d="M137.966 16.1631H133.766V20.3632H137.966V16.1631Z" fill="black"/>
<path d="M20.3631 20.3632H16.163V24.5633H20.3631V20.3632Z" fill="black"/>
<path d="M45.5637 20.3632H41.3636V24.5633H45.5637V20.3632Z" fill="black"/>
<path d="M62.3641 20.3632H58.164V24.5633H62.3641V20.3632Z" fill="black"/>
<path d="M70.7643 20.3632H66.5642V24.5633H70.7643V20.3632Z" fill="black"/>
<path d="M74.9644 20.3632H70.7643V24.5633H74.9644V20.3632Z" fill="black"/>
<path d="M83.3646 20.3632H79.1645V24.5633H83.3646V20.3632Z" fill="black"/>
<path d="M100.165 20.3632H95.9649V24.5633H100.165V20.3632Z" fill="black"/>
<path d="M112.765 20.3632H108.565V24.5633H112.765V20.3632Z" fill="black"/>
<path d="M137.966 20.3632H133.766V24.5633H137.966V20.3632Z" fill="black"/>
<path d="M20.3631 24.5633H16.163V28.7634H20.3631V24.5633Z" fill="black"/>
<path d="M28.7633 24.5633H24.5632V28.7634H28.7633V24.5633Z" fill="black"/>
<path d="M32.9634 24.5633H28.7633V28.7634H32.9634V24.5633Z" fill="black"/>
<path d="M37.1635 24.5633H32.9634V28.7634H37.1635V24.5633Z" fill="black"/>
<path d="M45.5637 24.5633H41.3636V28.7634H45.5637V24.5633Z" fill="black"/>
<path d="M53.9639 24.5633H49.7638V28.7634H53.9639V24.5633Z" fill="black"/>
<path d="M66.5642 24.5633H62.3641V28.7634H66.5642V24.5633Z" fill="black"/>
<path d="M70.7643 24.5633H66.5642V28.7634H70.7643V24.5633Z" fill="black"/>
<path d="M79.1645 24.5633H74.9644V28.7634H79.1645V24.5633Z" fill="black"/>
<path d="M91.7648 24.5633H87.5647V28.7634H91.7648V24.5633Z" fill="black"/>
<path d="M95.9649 24.5633H91.7648V28.7634H95.9649V24.5633Z" fill="black"/>
<path d="M100.165 24.5633H95.9649V28.7634H100.165V24.5633Z" fill="black"/>
<path d="M112.765 24.5633H108.565V28.7634H112.765V24.5633Z" fill="black"/>
<path d="M121.166 24.5633H116.965V28.7634H121.166V24.5633Z" fill="black"/>
<path d="M125.366 24.5633H121.166V28.7634H125.366V24.5633Z" fill="black"/>
<path d="M129.566 24.5633H125.366V28.7634H129.566V24.5633Z" fill="black"/>
<path d="M137.966 24.5633H133.766V28.7634H137.966V24.5633Z" fill="black"/>
<path d="M20.3631 28.7634H16.163V32.9635H20.3631V28.7634Z" fill="black"/>
<path d="M28.7633 28.7634H24.5632V32.9635H28.7633V28.7634Z" fill="black"/>
<path d="M32.9634 28.7634H28.7633V32.9635H32.9634V28.7634Z" fill="black"/>
<path d="M37.1635 28.7634H32.9634V32.9635H37.1635V28.7634Z" fill="black"/>
<path d="M45.5637 28.7634H41.3636V32.9635H45.5637V28.7634Z" fill="black"/>
<path d="M58.164 28.7634H53.9639V32.9635H58.164V28.7634Z" fill="black"/>
<path d="M62.3641 28.7634H58.164V32.9635H62.3641V28.7634Z" fill="black"/>
<path d="M66.5642 28.7634H62.3641V32.9635H66.5642V28.7634Z" fill="black"/>
<path d="M87.5647 28.7634H83.3646V32.9635H87.5647V28.7634Z" fill="black"/>
<path d="M91.7648 28.7634H87.5647V32.9635H91.7648V28.7634Z" fill="black"/>
<path d="M100.165 28.7634H95.9649V32.9635H100.165V28.7634Z" fill="black"/>
<path d="M112.765 28.7634H108.565V32.9635H112.765V28.7634Z" fill="black"/>
<path d="M121.166 28.7634H116.965V32.9635H121.166V28.7634Z" fill="black"/>
<path d="M125.366 28.7634H121.166V32.9635H125.366V28.7634Z" fill="black"/>
<path d="M129.566 28.7634H125.366V32.9635H129.566V28.7634Z" fill="black"/>
<path d="M137.966 28.7634H133.766V32.9635H137.966V28.7634Z" fill="black"/>
<path d="M20.3631 32.9635H16.163V37.1636H20.3631V32.9635Z" fill="black"/>
<path d="M28.7633 32.9635H24.5632V37.1636H28.7633V32.9635Z" fill="black"/>
<path d="M32.9634 32.9635H28.7633V37.1636H32.9634V32.9635Z" fill="black"/>
<path d="M37.1635 32.9635H32.9634V37.1636H37.1635V32.9635Z" fill="black"/>
<path d="M45.5637 32.9635H41.3636V37.1636H45.5637V32.9635Z" fill="black"/>
<path d="M53.9639 32.9635H49.7638V37.1636H53.9639V32.9635Z" fill="black"/>
<path d="M58.164 32.9635H53.9639V37.1636H58.164V32.9635Z" fill="black"/>
<path d="M62.3641 32.9635H58.164V37.1636H62.3641V32.9635Z" fill="black"/>
<path d="M66.5642 32.9635H62.3641V37.1636H66.5642V32.9635Z" fill="black"/>
<path d="M74.9644 32.9635H70.7643V37.1636H74.9644V32.9635Z" fill="black"/>
<path d="M79.1645 32.9635H74.9644V37.1636H79.1645V32.9635Z" fill="black"/>
<path d="M87.5647 32.9635H83.3646V37.1636H87.5647V32.9635Z" fill="black"/>
<path d="M91.7648 32.9635H87.5647V37.1636H91.7648V32.9635Z" fill="black"/>
<path d="M95.9649 32.9635H91.7648V37.1636H95.9649V32.9635Z" fill="black"/>
<path d="M112.765 32.9635H108.565V37.1636H112.765V32.9635Z" fill="black"/>
<path d="M121.166 32.9635H116.965V37.1636H121.166V32.9635Z" fill="black"/>
<path d="M125.366 32.9635H121.166V37.1636H125.366V32.9635Z" fill="black"/>
<path d="M129.566 32.9635H125.366V37.1636H129.566V32.9635Z" fill="black"/>
<path d="M137.966 32.9635H133.766V37.1636H137.966V32.9635Z" fill="black"/>
<path d="M20.3631 37.1636H16.163V41.3637H20.3631V37.1636Z" fill="black"/>
<path d="M45.5637 37.1636H41.3636V41.3637H45.5637V37.1636Z" fill="black"/>
<path d="M62.3641 37.1636H58.164V41.3637H62.3641V37.1636Z" fill="black"/>
<path d="M66.5642 37.1636H62.3641V41.3637H66.5642V37.1636Z" fill="black"/>
<path d="M70.7643 37.1636H66.5642V41.3637H70.7643V37.1636Z" fill="black"/>
<path d="M74.9644 37.1636H70.7643V41.3637H74.9644V37.1636Z" fill="black"/>
<path d="M87.5647 37.1636H83.3646V41.3637H87.5647V37.1636Z" fill="black"/>
<path d="M95.9649 37.1636H91.7648V41.3637H95.9649V37.1636Z" fill="black"/>
<path d="M100.165 37.1636H95.9649V41.3637H100.165V37.1636Z" fill="black"/>
<path d="M112.765 37.1636H108.565V41.3637H112.765V37.1636Z" fill="black"/>
<path d="M137.966 37.1636H133.766V41.3637H137.966V37.1636Z" fill="black"/>
<path d="M20.3631 41.3637H16.163V45.5638H20.3631V41.3637Z" fill="black"/>
<path d="M24.5632 41.3637H20.3631V45.5638H24.5632V41.3637Z" fill="black"/>
<path d="M28.7633 41.3637H24.5632V45.5638H28.7633V41.3637Z" fill="black"/>
<path d="M32.9634 41.3637H28.7633V45.5638H32.9634V41.3637Z" fill="black"/>
<path d="M37.1635 41.3637H32.9634V45.5638H37.1635V41.3637Z" fill="black"/>
<path d="M41.3636 41.3637H37.1635V45.5638H41.3636V41.3637Z" fill="black"/>
<path d="M45.5637 41.3637H41.3636V45.5638H45.5637V41.3637Z" fill="black"/>
<path d="M53.9639 41.3637H49.7638V45.5638H53.9639V41.3637Z" fill="black"/>
<path d="M62.3641 41.3637H58.164V45.5638H62.3641V41.3637Z" fill="black"/>
<path d="M70.7643 41.3637H66.5642V45.5638H70.7643V41.3637Z" fill="black"/>
<path d="M79.1645 41.3637H74.9644V45.5638H79.1645V41.3637Z" fill="black"/>
<path d="M87.5647 41.3637H83.3646V45.5638H87.5647V41.3637Z" fill="black"/>
<path d="M95.9649 41.3637H91.7648V45.5638H95.9649V41.3637Z" fill="black"/>
<path d="M104.365 41.3637H100.165V45.5638H104.365V41.3637Z" fill="black"/>
<path d="M112.765 41.3637H108.565V45.5638H112.765V41.3637Z" fill="black"/>
<path d="M116.965 41.3637H112.765V45.5638H116.965V41.3637Z" fill="black"/>
<path d="M121.166 41.3637H116.965V45.5638H121.166V41.3637Z" fill="black"/>
<path d="M125.366 41.3637H121.166V45.5638H125.366V41.3637Z" fill="black"/>
<path d="M129.566 41.3637H125.366V45.5638H129.566V41.3637Z" fill="black"/>
<path d="M133.766 41.3637H129.566V45.5638H133.766V41.3637Z" fill="black"/>
<path d="M137.966 41.3637H133.766V45.5638H137.966V41.3637Z" fill="black"/>
<path d="M62.3641 45.5638H58.164V49.7639H62.3641V45.5638Z" fill="black"/>
<path d="M70.7643 45.5638H66.5642V49.7639H70.7643V45.5638Z" fill="black"/>
<path d="M74.9644 45.5638H70.7643V49.7639H74.9644V45.5638Z" fill="black"/>
<path d="M83.3646 45.5638H79.1645V49.7639H83.3646V45.5638Z" fill="black"/>
<path d="M87.5647 45.5638H83.3646V49.7639H87.5647V45.5638Z" fill="black"/>
<path d="M91.7648 45.5638H87.5647V49.7639H91.7648V45.5638Z" fill="black"/>
<path d="M24.5632 49.7639H20.3631V53.964H24.5632V49.7639Z" fill="black"/>
<path d="M37.1635 49.7639H32.9634V53.964H37.1635V49.7639Z" fill="black"/>
<path d="M45.5637 49.7639H41.3636V53.964H45.5637V49.7639Z" fill="black"/>
<path d="M58.164 49.7639H53.9639V53.964H58.164V49.7639Z" fill="black"/>
<path d="M83.3646 49.7639H79.1645V53.964H83.3646V49.7639Z" fill="black"/>
<path d="M100.165 49.7639H95.9649V53.964H100.165V49.7639Z" fill="black"/>
<path d="M108.565 49.7639H104.365V53.964H108.565V49.7639Z" fill="black"/>
<path d="M121.166 49.7639H116.965V53.964H121.166V49.7639Z" fill="black"/>
<path d="M129.566 49.7639H125.366V53.964H129.566V49.7639Z" fill="black"/>
<path d="M137.966 49.7639H133.766V53.964H137.966V49.7639Z" fill="black"/>
<path d="M24.5632 53.964H20.3631V58.1641H24.5632V53.964Z" fill="black"/>
<path d="M28.7633 53.964H24.5632V58.1641H28.7633V53.964Z" fill="black"/>
<path d="M37.1635 53.964H32.9634V58.1641H37.1635V53.964Z" fill="black"/>
<path d="M53.9639 53.964H49.7638V58.1641H53.9639V53.964Z" fill="black"/>
<path d="M58.164 53.964H53.9639V58.1641H58.164V53.964Z" fill="black"/>
<path d="M66.5642 53.964H62.3641V58.1641H66.5642V53.964Z" fill="black"/>
<path d="M70.7643 53.964H66.5642V58.1641H70.7643V53.964Z" fill="black"/>
<path d="M83.3646 53.964H79.1645V58.1641H83.3646V53.964Z" fill="black"/>
<path d="M87.5647 53.964H83.3646V58.1641H87.5647V53.964Z" fill="black"/>
<path d="M91.7648 53.964H87.5647V58.1641H91.7648V53.964Z" fill="black"/>
<path d="M100.165 53.964H95.9649V58.1641H100.165V53.964Z" fill="black"/>
<path d="M104.365 53.964H100.165V58.1641H104.365V53.964Z" fill="black"/>
<path d="M133.766 53.964H129.566V58.1641H133.766V53.964Z" fill="black"/>
<path d="M20.3631 58.1641H16.163V62.3642H20.3631V58.1641Z" fill="black"/>
<path d="M32.9634 58.1641H28.7633V62.3642H32.9634V58.1641Z" fill="black"/>
<path d="M45.5637 58.1641H41.3636V62.3642H45.5637V58.1641Z" fill="black"/>
<path d="M53.9639 58.1641H49.7638V62.3642H53.9639V58.1641Z" fill="black"/>
<path d="M58.164 58.1641H53.9639V62.3642H58.164V58.1641Z" fill="black"/>
<path d="M74.9644 58.1641H70.7643V62.3642H74.9644V58.1641Z" fill="black"/>
<path d="M79.1645 58.1641H74.9644V62.3642H79.1645V58.1641Z" fill="black"/>
<path d="M95.9649 58.1641H91.7648V62.3642H95.9649V58.1641Z" fill="black"/>
<path d="M100.165 58.1641H95.9649V62.3642H100.165V58.1641Z" fill="black"/>
<path d="M108.565 58.1641H104.365V62.3642H108.565V58.1641Z" fill="black"/>
<path d="M121.166 58.1641H116.965V62.3642H121.166V58.1641Z" fill="black"/>
<path d="M129.566 58.1641H125.366V62.3642H129.566V58.1641Z" fill="black"/>
<path d="M137.966 58.1641H133.766V62.3642H137.966V58.1641Z" fill="black"/>
<path d="M20.3631 62.3642H16.163V66.5643H20.3631V62.3642Z" fill="black"/>
<path d="M32.9634 62.3642H28.7633V66.5643H32.9634V62.3642Z" fill="black"/>
<path d="M37.1635 62.3642H32.9634V66.5643H37.1635V62.3642Z" fill="black"/>
<path d="M58.164 62.3642H53.9639V66.5643H58.164V62.3642Z" fill="black"/>
<path d="M62.3641 62.3642H58.164V66.5643H62.3641V62.3642Z" fill="black"/>
<path d="M66.5642 62.3642H62.3641V66.5643H66.5642V62.3642Z" fill="black"/>
<path d="M87.5647 62.3642H83.3646V66.5643H87.5647V62.3642Z" fill="black"/>
<path d="M95.9649 62.3642H91.7648V66.5643H95.9649V62.3642Z" fill="black"/>
<path d="M104.365 62.3642H100.165V66.5643H104.365V62.3642Z" fill="black"/>
<path d="M108.565 62.3642H104.365V66.5643H108.565V62.3642Z" fill="black"/>
<path d="M112.765 62.3642H108.565V66.5643H112.765V62.3642Z" fill="black"/>
<path d="M125.366 62.3642H121.166V66.5643H125.366V62.3642Z" fill="black"/>
<path d="M129.566 62.3642H125.366V66.5643H129.566V62.3642Z" fill="black"/>
<path d="M133.766 62.3642H129.566V66.5643H133.766V62.3642Z" fill="black"/>
<path d="M137.966 62.3642H133.766V66.5643H137.966V62.3642Z" fill="black"/>
<path d="M20.3631 66.5643H16.163V70.7644H20.3631V66.5643Z" fill="black"/>
<path d="M32.9634 66.5643H28.7633V70.7644H32.9634V66.5643Z" fill="black"/>
<path d="M37.1635 66.5643H32.9634V70.7644H37.1635V66.5643Z" fill="black"/>
<path d="M41.3636 66.5643H37.1635V70.7644H41.3636V66.5643Z" fill="black"/>
<path d="M45.5637 66.5643H41.3636V70.7644H45.5637V66.5643Z" fill="black"/>
<path d="M49.7638 66.5643H45.5637V70.7644H49.7638V66.5643Z" fill="black"/>
<path d="M53.9639 66.5643H49.7638V70.7644H53.9639V66.5643Z" fill="black"/>
<path d="M62.3641 66.5643H58.164V70.7644H62.3641V66.5643Z" fill="black"/>
<path d="M74.9644 66.5643H70.7643V70.7644H74.9644V66.5643Z" fill="black"/>
<path d="M79.1645 66.5643H74.9644V70.7644H79.1645V66.5643Z" fill="black"/>
<path d="M83.3646 66.5643H79.1645V70.7644H83.3646V66.5643Z" fill="black"/>
<path d="M91.7648 66.5643H87.5647V70.7644H91.7648V66.5643Z" fill="black"/>
<path d="M95.9649 66.5643H91.7648V70.7644H95.9649V66.5643Z" fill="black"/>
<path d="M100.165 66.5643H95.9649V70.7644H100.165V66.5643Z" fill="black"/>
<path d="M104.365 66.5643H100.165V70.7644H104.365V66.5643Z" fill="black"/>
<path d="M133.766 66.5643H129.566V70.7644H133.766V66.5643Z" fill="black"/>
<path d="M20.3631 70.7644H16.163V74.9645H20.3631V70.7644Z" fill="black"/>
<path d="M32.9634 70.7644H28.7633V74.9645H32.9634V70.7644Z" fill="black"/>
<path d="M37.1635 70.7644H32.9634V74.9645H37.1635V70.7644Z" fill="black"/>
<path d="M58.164 70.7644H53.9639V74.9645H58.164V70.7644Z" fill="black"/>
<path d="M66.5642 70.7644H62.3641V74.9645H66.5642V70.7644Z" fill="black"/>
<path d="M79.1645 70.7644H74.9644V74.9645H79.1645V70.7644Z" fill="black"/>
<path d="M91.7648 70.7644H87.5647V74.9645H91.7648V70.7644Z" fill="black"/>
<path d="M100.165 70.7644H95.9649V74.9645H100.165V70.7644Z" fill="black"/>
<path d="M112.765 70.7644H108.565V74.9645H112.765V70.7644Z" fill="black"/>
<path d="M20.3631 74.9645H16.163V79.1646H20.3631V74.9645Z" fill="black"/>
<path d="M24.5632 74.9645H20.3631V79.1646H24.5632V74.9645Z" fill="black"/>
<path d="M37.1635 74.9645H32.9634V79.1646H37.1635V74.9645Z" fill="black"/>
<path d="M41.3636 74.9645H37.1635V79.1646H41.3636V74.9645Z" fill="black"/>
<path d="M45.5637 74.9645H41.3636V79.1646H45.5637V74.9645Z" fill="black"/>
<path d="M62.3641 74.9645H58.164V79.1646H62.3641V74.9645Z" fill="black"/>
<path d="M66.5642 74.9645H62.3641V79.1646H66.5642V74.9645Z" fill="black"/>
<path d="M70.7643 74.9645H66.5642V79.1646H70.7643V74.9645Z" fill="black"/>
<path d="M74.9644 74.9645H70.7643V79.1646H74.9644V74.9645Z" fill="black"/>
<path d="M95.9649 74.9645H91.7648V79.1646H95.9649V74.9645Z" fill="black"/>
<path d="M100.165 74.9645H95.9649V79.1646H100.165V74.9645Z" fill="black"/>
<path d="M104.365 74.9645H100.165V79.1646H104.365V74.9645Z" fill="black"/>
<path d="M108.565 74.9645H104.365V79.1646H108.565V74.9645Z" fill="black"/>
<path d="M129.566 74.9645H125.366V79.1646H129.566V74.9645Z" fill="black"/>
<path d="M20.3631 79.1646H16.163V83.3647H20.3631V79.1646Z" fill="black"/>
<path d="M24.5632 79.1646H20.3631V83.3647H24.5632V79.1646Z" fill="black"/>
<path d="M37.1635 79.1646H32.9634V83.3647H37.1635V79.1646Z" fill="black"/>
<path d="M41.3636 79.1646H37.1635V83.3647H41.3636V79.1646Z" fill="black"/>
<path d="M53.9639 79.1646H49.7638V83.3647H53.9639V79.1646Z" fill="black"/>
<path d="M87.5647 79.1646H83.3646V83.3647H87.5647V79.1646Z" fill="black"/>
<path d="M133.766 79.1646H129.566V83.3647H133.766V79.1646Z" fill="black"/>
<path d="M20.3631 83.3647H16.163V87.5648H20.3631V83.3647Z" fill="black"/>
<path d="M24.5632 83.3647H20.3631V87.5648H24.5632V83.3647Z" fill="black"/>
<path d="M41.3636 83.3647H37.1635V87.5648H41.3636V83.3647Z" fill="black"/>
<path d="M45.5637 83.3647H41.3636V87.5648H45.5637V83.3647Z" fill="black"/>
<path d="M49.7638 83.3647H45.5637V87.5648H49.7638V83.3647Z" fill="black"/>
<path d="M53.9639 83.3647H49.7638V87.5648H53.9639V83.3647Z" fill="black"/>
<path d="M58.164 83.3647H53.9639V87.5648H58.164V83.3647Z" fill="black"/>
<path d="M70.7643 83.3647H66.5642V87.5648H70.7643V83.3647Z" fill="black"/>
<path d="M74.9644 83.3647H70.7643V87.5648H74.9644V83.3647Z" fill="black"/>
<path d="M79.1645 83.3647H74.9644V87.5648H79.1645V83.3647Z" fill="black"/>
<path d="M83.3646 83.3647H79.1645V87.5648H83.3646V83.3647Z" fill="black"/>
<path d="M87.5647 83.3647H83.3646V87.5648H87.5647V83.3647Z" fill="black"/>
<path d="M108.565 83.3647H104.365V87.5648H108.565V83.3647Z" fill="black"/>
<path d="M112.765 83.3647H108.565V87.5648H112.765V83.3647Z" fill="black"/>
<path d="M125.366 83.3647H121.166V87.5648H125.366V83.3647Z" fill="black"/>
<path d="M133.766 83.3647H129.566V87.5648H133.766V83.3647Z" fill="black"/>
<path d="M137.966 83.3647H133.766V87.5648H137.966V83.3647Z" fill="black"/>
<path d="M24.5632 87.5648H20.3631V91.7649H24.5632V87.5648Z" fill="black"/>
<path d="M41.3636 87.5648H37.1635V91.7649H41.3636V87.5648Z" fill="black"/>
<path d="M49.7638 87.5648H45.5637V91.7649H49.7638V87.5648Z" fill="black"/>
<path d="M53.9639 87.5648H49.7638V91.7649H53.9639V87.5648Z" fill="black"/>
<path d="M66.5642 87.5648H62.3641V91.7649H66.5642V87.5648Z" fill="black"/>
<path d="M70.7643 87.5648H66.5642V91.7649H70.7643V87.5648Z" fill="black"/>
<path d="M74.9644 87.5648H70.7643V91.7649H74.9644V87.5648Z" fill="black"/>
<path d="M79.1645 87.5648H74.9644V91.7649H79.1645V87.5648Z" fill="black"/>
<path d="M83.3646 87.5648H79.1645V91.7649H83.3646V87.5648Z" fill="black"/>
<path d="M87.5647 87.5648H83.3646V91.7649H87.5647V87.5648Z" fill="black"/>
<path d="M91.7648 87.5648H87.5647V91.7649H91.7648V87.5648Z" fill="black"/>
<path d="M100.165 87.5648H95.9649V91.7649H100.165V87.5648Z" fill="black"/>
<path d="M104.365 87.5648H100.165V91.7649H104.365V87.5648Z" fill="black"/>
<path d="M112.765 87.5648H108.565V91.7649H112.765V87.5648Z" fill="black"/>
<path d="M116.965 87.5648H112.765V91.7649H116.965V87.5648Z" fill="black"/>
<path d="M121.166 87.5648H116.965V91.7649H121.166V87.5648Z" fill="black"/>
<path d="M125.366 87.5648H121.166V91.7649H125.366V87.5648Z" fill="black"/>
<path d="M133.766 87.5648H129.566V91.7649H133.766V87.5648Z" fill="black"/>
<path d="M137.966 87.5648H133.766V91.7649H137.966V87.5648Z" fill="black"/>
<path d="M24.5632 91.7649H20.3631V95.965H24.5632V91.7649Z" fill="black"/>
<path d="M28.7633 91.7649H24.5632V95.965H28.7633V91.7649Z" fill="black"/>
<path d="M32.9634 91.7649H28.7633V95.965H32.9634V91.7649Z" fill="black"/>
<path d="M37.1635 91.7649H32.9634V95.965H37.1635V91.7649Z" fill="black"/>
<path d="M45.5637 91.7649H41.3636V95.965H45.5637V91.7649Z" fill="black"/>
<path d="M49.7638 91.7649H45.5637V95.965H49.7638V91.7649Z" fill="black"/>
<path d="M79.1645 91.7649H74.9644V95.965H79.1645V91.7649Z" fill="black"/>
<path d="M83.3646 91.7649H79.1645V95.965H83.3646V91.7649Z" fill="black"/>
<path d="M100.165 91.7649H95.9649V95.965H100.165V91.7649Z" fill="black"/>
<path d="M125.366 91.7649H121.166V95.965H125.366V91.7649Z" fill="black"/>
<path d="M20.3631 95.965H16.163V100.165H20.3631V95.965Z" fill="black"/>
<path d="M24.5632 95.965H20.3631V100.165H24.5632V95.965Z" fill="black"/>
<path d="M37.1635 95.965H32.9634V100.165H37.1635V95.965Z" fill="black"/>
<path d="M41.3636 95.965H37.1635V100.165H41.3636V95.965Z" fill="black"/>
<path d="M66.5642 95.965H62.3641V100.165H66.5642V95.965Z" fill="black"/>
<path d="M70.7643 95.965H66.5642V100.165H70.7643V95.965Z" fill="black"/>
<path d="M83.3646 95.965H79.1645V100.165H83.3646V95.965Z" fill="black"/>
<path d="M100.165 95.965H95.9649V100.165H100.165V95.965Z" fill="black"/>
<path d="M108.565 95.965H104.365V100.165H108.565V95.965Z" fill="black"/>
<path d="M112.765 95.965H108.565V100.165H112.765V95.965Z" fill="black"/>
<path d="M129.566 95.965H125.366V100.165H129.566V95.965Z" fill="black"/>
<path d="M133.766 95.965H129.566V100.165H133.766V95.965Z" fill="black"/>
<path d="M137.966 95.965H133.766V100.165H137.966V95.965Z" fill="black"/>
<path d="M24.5632 100.165H20.3631V104.365H24.5632V100.165Z" fill="black"/>
<path d="M28.7633 100.165H24.5632V104.365H28.7633V100.165Z" fill="black"/>
<path d="M41.3636 100.165H37.1635V104.365H41.3636V100.165Z" fill="black"/>
<path d="M45.5637 100.165H41.3636V104.365H45.5637V100.165Z" fill="black"/>
<path d="M49.7638 100.165H45.5637V104.365H49.7638V100.165Z" fill="black"/>
<path d="M53.9639 100.165H49.7638V104.365H53.9639V100.165Z" fill="black"/>
<path d="M58.164 100.165H53.9639V104.365H58.164V100.165Z" fill="black"/>
<path d="M70.7643 100.165H66.5642V104.365H70.7643V100.165Z" fill="black"/>
<path d="M74.9644 100.165H70.7643V104.365H74.9644V100.165Z" fill="black"/>
<path d="M79.1645 100.165H74.9644V104.365H79.1645V100.165Z" fill="black"/>
<path d="M83.3646 100.165H79.1645V104.365H83.3646V100.165Z" fill="black"/>
<path d="M87.5647 100.165H83.3646V104.365H87.5647V100.165Z" fill="black"/>
<path d="M91.7648 100.165H87.5647V104.365H91.7648V100.165Z" fill="black"/>
<path d="M100.165 100.165H95.9649V104.365H100.165V100.165Z" fill="black"/>
<path d="M104.365 100.165H100.165V104.365H104.365V100.165Z" fill="black"/>
<path d="M108.565 100.165H104.365V104.365H108.565V100.165Z" fill="black"/>
<path d="M112.765 100.165H108.565V104.365H112.765V100.165Z" fill="black"/>
<path d="M116.965 100.165H112.765V104.365H116.965V100.165Z" fill="black"/>
<path d="M121.166 100.165H116.965V104.365H121.166V100.165Z" fill="black"/>
<path d="M125.366 100.165H121.166V104.365H125.366V100.165Z" fill="black"/>
<path d="M129.566 100.165H125.366V104.365H129.566V100.165Z" fill="black"/>
<path d="M133.766 100.165H129.566V104.365H133.766V100.165Z" fill="black"/>
<path d="M137.966 100.165H133.766V104.365H137.966V100.165Z" fill="black"/>
<path d="M58.164 104.365H53.9639V108.565H58.164V104.365Z" fill="black"/>
<path d="M62.3641 104.365H58.164V108.565H62.3641V104.365Z" fill="black"/>
<path d="M70.7643 104.365H66.5642V108.565H70.7643V104.365Z" fill="black"/>
<path d="M83.3646 104.365H79.1645V108.565H83.3646V104.365Z" fill="black"/>
<path d="M87.5647 104.365H83.3646V108.565H87.5647V104.365Z" fill="black"/>
<path d="M91.7648 104.365H87.5647V108.565H91.7648V104.365Z" fill="black"/>
<path d="M104.365 104.365H100.165V108.565H104.365V104.365Z" fill="black"/>
<path d="M121.166 104.365H116.965V108.565H121.166V104.365Z" fill="black"/>
<path d="M20.3631 108.565H16.163V112.765H20.3631V108.565Z" fill="black"/>
<path d="M24.5632 108.565H20.3631V112.765H24.5632V108.565Z" fill="black"/>
<path d="M28.7633 108.565H24.5632V112.765H28.7633V108.565Z" fill="black"/>
<path d="M32.9634 108.565H28.7633V112.765H32.9634V108.565Z" fill="black"/>
<path d="M37.1635 108.565H32.9634V112.765H37.1635V108.565Z" fill="black"/>
<path d="M41.3636 108.565H37.1635V112.765H41.3636V108.565Z" fill="black"/>
<path d="M45.5637 108.565H41.3636V112.765H45.5637V108.565Z" fill="black"/>
<path d="M58.164 108.565H53.9639V112.765H58.164V108.565Z" fill="black"/>
<path d="M66.5642 108.565H62.3641V112.765H66.5642V108.565Z" fill="black"/>
<path d="M70.7643 108.565H66.5642V112.765H70.7643V108.565Z" fill="black"/>
<path d="M74.9644 108.565H70.7643V112.765H74.9644V108.565Z" fill="black"/>
<path d="M79.1645 108.565H74.9644V112.765H79.1645V108.565Z" fill="black"/>
<path d="M83.3646 108.565H79.1645V112.765H83.3646V108.565Z" fill="black"/>
<path d="M87.5647 108.565H83.3646V112.765H87.5647V108.565Z" fill="black"/>
<path d="M91.7648 108.565H87.5647V112.765H91.7648V108.565Z" fill="black"/>
<path d="M95.9649 108.565H91.7648V112.765H95.9649V108.565Z" fill="black"/>
<path d="M104.365 108.565H100.165V112.765H104.365V108.565Z" fill="black"/>
<path d="M112.765 108.565H108.565V112.765H112.765V108.565Z" fill="black"/>
<path d="M121.166 108.565H116.965V112.765H121.166V108.565Z" fill="black"/>
<path d="M133.766 108.565H129.566V112.765H133.766V108.565Z" fill="black"/>
<path d="M20.3631 112.765H16.163V116.965H20.3631V112.765Z" fill="black"/>
<path d="M45.5637 112.765H41.3636V116.965H45.5637V112.765Z" fill="black"/>
<path d="M74.9644 112.765H70.7643V116.965H74.9644V112.765Z" fill="black"/>
<path d="M79.1645 112.765H74.9644V116.965H79.1645V112.765Z" fill="black"/>
<path d="M87.5647 112.765H83.3646V116.965H87.5647V112.765Z" fill="black"/>
<path d="M95.9649 112.765H91.7648V116.965H95.9649V112.765Z" fill="black"/>
<path d="M104.365 112.765H100.165V116.965H104.365V112.765Z" fill="black"/>
<path d="M121.166 112.765H116.965V116.965H121.166V112.765Z" fill="black"/>
<path d="M129.566 112.765H125.366V116.965H129.566V112.765Z" fill="black"/>
<path d="M137.966 112.765H133.766V116.965H137.966V112.765Z" fill="black"/>
<path d="M20.3631 116.965H16.163V121.166H20.3631V116.965Z" fill="black"/>
<path d="M28.7633 116.965H24.5632V121.166H28.7633V116.965Z" fill="black"/>
<path d="M32.9634 116.965H28.7633V121.166H32.9634V116.965Z" fill="black"/>
<path d="M37.1635 116.965H32.9634V121.166H37.1635V116.965Z" fill="black"/>
<path d="M45.5637 116.965H41.3636V121.166H45.5637V116.965Z" fill="black"/>
<path d="M53.9639 116.965H49.7638V121.166H53.9639V116.965Z" fill="black"/>
<path d="M66.5642 116.965H62.3641V121.166H66.5642V116.965Z" fill="black"/>
<path d="M104.365 116.965H100.165V121.166H104.365V116.965Z" fill="black"/>
<path d="M108.565 116.965H104.365V121.166H108.565V116.965Z" fill="black"/>
<path d="M112.765 116.965H108.565V121.166H112.765V116.965Z" fill="black"/>
<path d="M116.965 116.965H112.765V121.166H116.965V116.965Z" fill="black"/>
<path d="M121.166 116.965H116.965V121.166H121.166V116.965Z" fill="black"/>
<path d="M125.366 116.965H121.166V121.166H125.366V116.965Z" fill="black"/>
<path d="M129.566 116.965H125.366V121.166H129.566V116.965Z" fill="black"/>
<path d="M133.766 116.965H129.566V121.166H133.766V116.965Z" fill="black"/>
<path d="M137.966 116.965H133.766V121.166H137.966V116.965Z" fill="black"/>
<path d="M20.3631 121.166H16.163V125.366H20.3631V121.166Z" fill="black"/>
<path d="M28.7633 121.166H24.5632V125.366H28.7633V121.166Z" fill="black"/>
<path d="M32.9634 121.166H28.7633V125.366H32.9634V121.166Z" fill="black"/>
<path d="M37.1635 121.166H32.9634V125.366H37.1635V121.166Z" fill="black"/>
<path d="M45.5637 121.166H41.3636V125.366H45.5637V121.166Z" fill="black"/>
<path d="M58.164 121.166H53.9639V125.366H58.164V121.166Z" fill="black"/>
<path d="M70.7643 121.166H66.5642V125.366H70.7643V121.166Z" fill="black"/>
<path d="M74.9644 121.166H70.7643V125.366H74.9644V121.166Z" fill="black"/>
<path d="M79.1645 121.166H74.9644V125.366H79.1645V121.166Z" fill="black"/>
<path d="M83.3646 121.166H79.1645V125.366H83.3646V121.166Z" fill="black"/>
<path d="M87.5647 121.166H83.3646V125.366H87.5647V121.166Z" fill="black"/>
<path d="M91.7648 121.166H87.5647V125.366H91.7648V121.166Z" fill="black"/>
<path d="M100.165 121.166H95.9649V125.366H100.165V121.166Z" fill="black"/>
<path d="M112.765 121.166H108.565V125.366H112.765V121.166Z" fill="black"/>
<path d="M116.965 121.166H112.765V125.366H116.965V121.166Z" fill="black"/>
<path d="M129.566 121.166H125.366V125.366H129.566V121.166Z" fill="black"/>
<path d="M137.966 121.166H133.766V125.366H137.966V121.166Z" fill="black"/>
<path d="M20.3631 125.366H16.163V129.566H20.3631V125.366Z" fill="black"/>
<path d="M28.7633 125.366H24.5632V129.566H28.7633V125.366Z" fill="black"/>
<path d="M32.9634 125.366H28.7633V129.566H32.9634V125.366Z" fill="black"/>
<path d="M37.1635 125.366H32.9634V129.566H37.1635V125.366Z" fill="black"/>
<path d="M45.5637 125.366H41.3636V129.566H45.5637V125.366Z" fill="black"/>
<path d="M62.3641 125.366H58.164V129.566H62.3641V125.366Z" fill="black"/>
<path d="M91.7648 125.366H87.5647V129.566H91.7648V125.366Z" fill="black"/>
<path d="M108.565 125.366H104.365V129.566H108.565V125.366Z" fill="black"/>
<path d="M125.366 125.366H121.166V129.566H125.366V125.366Z" fill="black"/>
<path d="M20.3631 129.566H16.163V133.766H20.3631V129.566Z" fill="black"/>
<path d="M45.5637 129.566H41.3636V133.766H45.5637V129.566Z" fill="black"/>
<path d="M53.9639 129.566H49.7638V133.766H53.9639V129.566Z" fill="black"/>
<path d="M62.3641 129.566H58.164V133.766H62.3641V129.566Z" fill="black"/>
<path d="M66.5642 129.566H62.3641V133.766H66.5642V129.566Z" fill="black"/>
<path d="M70.7643 129.566H66.5642V133.766H70.7643V129.566Z" fill="black"/>
<path d="M79.1645 129.566H74.9644V133.766H79.1645V129.566Z" fill="black"/>
<path d="M83.3646 129.566H79.1645V133.766H83.3646V129.566Z" fill="black"/>
<path d="M87.5647 129.566H83.3646V133.766H87.5647V129.566Z" fill="black"/>
<path d="M95.9649 129.566H91.7648V133.766H95.9649V129.566Z" fill="black"/>
<path d="M100.165 129.566H95.9649V133.766H100.165V129.566Z" fill="black"/>
<path d="M108.565 129.566H104.365V133.766H108.565V129.566Z" fill="black"/>
<path d="M112.765 129.566H108.565V133.766H112.765V129.566Z" fill="black"/>
<path d="M121.166 129.566H116.965V133.766H121.166V129.566Z" fill="black"/>
<path d="M125.366 129.566H121.166V133.766H125.366V129.566Z" fill="black"/>
<path d="M133.766 129.566H129.566V133.766H133.766V129.566Z" fill="black"/>
<path d="M137.966 129.566H133.766V133.766H137.966V129.566Z" fill="black"/>
<path d="M20.3631 133.766H16.163V137.966H20.3631V133.766Z" fill="black"/>
<path d="M24.5632 133.766H20.3631V137.966H24.5632V133.766Z" fill="black"/>
<path d="M28.7633 133.766H24.5632V137.966H28.7633V133.766Z" fill="black"/>
<path d="M32.9634 133.766H28.7633V137.966H32.9634V133.766Z" fill="black"/>
<path d="M37.1635 133.766H32.9634V137.966H37.1635V133.766Z" fill="black"/>
<path d="M41.3636 133.766H37.1635V137.966H41.3636V133.766Z" fill="black"/>
<path d="M45.5637 133.766H41.3636V137.966H45.5637V133.766Z" fill="black"/>
<path d="M58.164 133.766H53.9639V137.966H58.164V133.766Z" fill="black"/>
<path d="M62.3641 133.766H58.164V137.966H62.3641V133.766Z" fill="black"/>
<path d="M70.7643 133.766H66.5642V137.966H70.7643V133.766Z" fill="black"/>
<path d="M74.9644 133.766H70.7643V137.966H74.9644V133.766Z" fill="black"/>
<path d="M79.1645 133.766H74.9644V137.966H79.1645V133.766Z" fill="black"/>
<path d="M87.5647 133.766H83.3646V137.966H87.5647V133.766Z" fill="black"/>
<path d="M91.7648 133.766H87.5647V137.966H91.7648V133.766Z" fill="black"/>
<path d="M95.9649 133.766H91.7648V137.966H95.9649V133.766Z" fill="black"/>
<path d="M108.565 133.766H104.365V137.966H108.565V133.766Z" fill="black"/>
<path d="M112.765 133.766H108.565V137.966H112.765V133.766Z" fill="black"/>
<path d="M121.166 133.766H116.965V137.966H121.166V133.766Z" fill="black"/>
<path d="M125.366 133.766H121.166V137.966H125.366V133.766Z" fill="black"/>
<path d="M129.566 133.766H125.366V137.966H129.566V133.766Z" fill="black"/>
<path d="M137.966 133.766H133.766V137.966H137.966V133.766Z" fill="black"/>
</g>
<defs>
<clipPath id="clip0_402_893">
<rect width="131.646" height="131.646" fill="white" transform="translate(11.2416 11.2417)"/>
</clipPath>
</defs>
</svg>
