<svg width="36" height="38" viewBox="0 0 36 38" fill="none" xmlns="http://www.w3.org/2000/svg">
<path fill-rule="evenodd" clip-rule="evenodd" d="M13.0623 37.9535C10.0672 37.649 7.34983 36.1079 6.33332 34.1371C6.14112 33.7646 6.09887 33.7349 5.45898 33.5231C4.47292 33.1968 3.62682 32.6646 2.79378 31.8468C0.979101 30.0653 0.000763849 27.6227 4.50622e-07 24.8716C-0.00042366 23.2818 0.298489 21.9158 1.03407 20.1457L1.37395 19.3278L1.021 18.8332C0.241489 17.7412 -0.0445314 16.7749 0.0182369 15.4461C0.0845677 14.0433 0.643291 12.8796 1.75879 11.8213C2.32641 11.2828 3.58093 10.419 3.79553 10.419C3.93651 10.419 3.93362 10.3987 3.68145 9.62712C3.428 8.8514 3.37532 7.74674 3.55633 7.00136C3.84727 5.80318 4.80839 4.67627 6.03738 4.09243C6.72427 3.76609 7.9491 3.41874 8.41714 3.41757C8.61427 3.41707 8.68612 3.34497 8.89546 2.93752C9.45163 1.8547 10.2135 1.09707 11.23 0.615681C12.1423 0.183807 12.9108 0.0415115 14.3347 0.0412636L15.5646 0.0410118L16.2008 0.348354C16.558 0.520905 17.0134 0.827824 17.2396 1.04839L17.6422 1.44109L18.094 1.02113C18.8779 0.292587 19.6854 -0.000999451 20.9026 0C22.3293 0.0011673 23.6674 0.331596 24.5721 0.906265C25.1987 1.30421 25.9156 2.08169 26.2876 2.76664L26.5776 3.30046L27.5175 3.40065C28.7185 3.52869 29.305 3.6814 30.1787 4.09352C31.8008 4.85882 32.7721 6.38543 32.7713 8.16837C32.7711 8.74803 32.7225 9.01336 32.5041 9.62712C32.3573 10.0397 32.2653 10.3869 32.2997 10.3987C32.555 10.4856 33.547 11.2042 33.9345 11.5829C34.8145 12.4427 35.2002 13.5127 35.2636 15.2705C35.2994 16.2632 35.2816 16.4873 35.1285 16.9828C34.9489 17.5641 34.5074 18.3141 34.0312 18.8472L33.766 19.144L34.0969 19.8984C34.9402 21.8207 35.2857 23.2342 35.2857 24.7628C35.2857 28.3278 33.3574 31.5426 30.3236 33.0351C29.6679 33.3577 28.7668 33.6757 28.5083 33.6757C28.4088 33.6757 28.3191 33.7513 28.2854 33.8633C28.1711 34.2442 27.5479 35.1869 27.087 35.6761C25.7622 37.0823 23.7466 37.8913 21.3325 37.9857C20.5585 38.0159 19.976 37.9974 19.6599 37.9325C18.9895 37.7949 18.2037 37.3908 17.8984 37.0268L17.6427 36.722L17.3973 37.0147C17.0956 37.3742 16.4785 37.713 15.8161 37.8825C15.3507 38.0017 13.9033 38.0389 13.0623 37.9535ZM15.7467 36.1706C16.1684 35.97 16.3908 35.6538 16.5962 34.963C16.7269 34.5236 16.7469 33.9193 16.774 29.6092L16.8044 24.7506L15.5484 24.785L14.2923 24.8194V26.8719V28.9245L12.5339 28.9244H10.7756L10.6084 29.2464C10.3479 29.7482 9.64443 30.3197 9.0936 30.4771C7.91568 30.8136 6.6732 30.2736 6.13153 29.1896C5.81336 28.5528 5.79631 27.6623 6.09107 27.0743C6.85141 25.5572 8.76712 25.1602 10.0375 26.2563C10.2119 26.4068 10.4521 26.6936 10.5714 26.8935L10.7883 27.2572H11.6694H12.5504L12.5732 25.1963L12.5958 23.1354L14.6952 23.1455L16.7945 23.1558V19.8299V16.5041L13.8469 16.5042H10.8994L10.923 13.9668L10.9465 11.4294L10.6652 11.2982C10.1547 11.06 9.76658 10.6725 9.49413 10.1286C9.25222 9.64571 9.22957 9.53518 9.25943 8.98544C9.33509 7.59412 10.3547 6.62959 11.7476 6.63159C12.8367 6.63317 13.7983 7.29203 14.1258 8.26114C14.3012 8.77996 14.2645 9.66146 14.0495 10.0977C13.8181 10.5669 13.3533 11.0537 12.9561 11.2425L12.5958 11.4138L12.6203 13.1254L12.6449 14.837H14.7219H16.7989L16.7755 8.9811L16.7521 3.12524L16.5641 2.77989C16.3265 2.34318 15.79 1.88847 15.3646 1.76326C14.9577 1.64339 13.9616 1.63931 13.2395 1.75443C11.4749 2.03584 10.4104 2.89342 10.0546 4.32034L9.91163 4.89333L9.14695 4.94668C7.86936 5.03579 7.10291 5.28695 6.25359 5.89487C5.15133 6.68385 4.77506 8.07667 5.30943 9.39014C5.43709 9.70389 5.7081 10.2375 5.91167 10.5761C6.11524 10.9147 6.27115 11.2004 6.258 11.2108C6.24494 11.2213 5.90972 11.334 5.51318 11.4613C3.69773 12.0441 2.60395 12.8961 1.97381 14.2184C1.75599 14.6754 1.7386 14.7892 1.7386 15.7554C1.7386 16.7651 1.7475 16.8163 2.01334 17.3392C2.16441 17.6364 2.50649 18.1327 2.77351 18.4422L3.25895 19.0048L4.61932 19.0032L5.9797 19.0015L6.23417 18.5761C7.25763 16.8651 9.71738 16.9789 10.662 18.7809C11.2792 19.9581 10.6705 21.5365 9.38098 22.1025C8.78943 22.3621 7.91729 22.3579 7.37926 22.0927C6.89815 21.8557 6.39575 21.3899 6.18192 20.9828L6.01685 20.6686L4.30684 20.6911L2.59691 20.7137L2.39834 21.2138C2.28909 21.4889 2.09604 22.0891 1.96923 22.5475C1.75895 23.3074 1.73877 23.5101 1.74004 24.8399C1.74131 26.085 1.76905 26.3976 1.9297 26.9748C2.18111 27.8781 2.53516 28.7164 2.97386 29.4475C3.44335 30.23 4.62017 31.3849 5.30799 31.7384C5.86722 32.0257 6.6637 32.2587 7.0868 32.2587C7.32583 32.2587 7.36315 32.2941 7.4601 32.6129C7.82594 33.8163 9.04788 34.9668 10.6605 35.6261C11.8525 36.1135 12.9362 36.3175 14.4139 36.333C15.2352 36.3416 15.4394 36.3168 15.7467 36.1706ZM22.2806 36.254C23.1559 36.1364 24.3178 35.7501 24.9194 35.3767C25.9122 34.7604 26.4865 34.0496 26.878 32.9525L27.1085 32.3062L27.7406 32.2067C31.0562 31.6843 33.5893 28.4757 33.5893 24.7982C33.5893 23.3583 33.2663 22.1345 32.3408 20.0673L31.7901 18.8375L32.4678 18.134C33.3988 17.1673 33.5394 16.8623 33.5757 15.7291C33.6254 14.1759 33.285 13.1901 32.4324 12.4179L32.0201 12.0445L31.9972 13.8567L31.9743 15.6688L28.19 15.6905L24.4057 15.7122L24.3751 17.0046L24.3443 18.297L24.7316 18.4989C26.3013 19.3172 26.4975 21.5013 25.0989 22.5876C24.5708 22.9979 24.1847 23.1264 23.4878 23.1239C22.5344 23.1206 21.6723 22.5695 21.236 21.6844C21.0228 21.252 20.9843 20.3666 21.1566 19.8571C21.3268 19.3533 21.7729 18.8257 22.2712 18.5387L22.6444 18.3238L22.667 16.1844L22.6896 14.0451L26.4854 14.0234L30.2812 14.0016V12.2558V10.5099L30.6081 9.77675C31.0673 8.74712 31.1578 8.31907 31.0524 7.67572C30.8849 6.65343 30.397 6.03366 29.401 5.5782C28.6207 5.22126 27.9919 5.08631 26.6172 4.98061L25.3704 4.88466L25.2704 4.46346C24.9489 3.10982 24.1559 2.32876 22.6472 1.87988C22.003 1.68816 20.4754 1.61222 19.984 1.74751C19.5131 1.87704 18.9718 2.31959 18.7213 2.77989C18.5408 3.11157 18.5323 3.22685 18.5077 5.68848L18.4819 8.25172H20.2585H22.0351L22.0848 8.05725C22.1643 7.74574 22.7607 7.14165 23.2533 6.87349C23.6436 6.6611 23.7971 6.62625 24.3437 6.62625C25.4348 6.62625 26.2275 7.13998 26.6994 8.15303C26.8785 8.53739 26.9036 8.69135 26.8698 9.19875C26.8055 10.1684 26.3201 10.8982 25.4667 11.3085C24.2843 11.877 22.7217 11.3781 22.1753 10.2576L22.0111 9.92079L20.251 9.91979L18.4909 9.91887V18.588V27.2572H21.9182H25.3454L25.5583 26.903C26.62 25.1361 29.1202 25.2327 30.0387 27.0762C30.3049 27.6103 30.3123 28.5507 30.0547 29.1035C29.5346 30.2201 28.2266 30.8161 27.0401 30.4771C26.4892 30.3197 25.7857 29.7482 25.5252 29.2464L25.3581 28.9244H21.9167H18.4754L18.5122 31.696C18.5423 33.9734 18.5744 34.556 18.6927 34.963C19.0163 36.0771 19.4135 36.343 20.7538 36.3431C21.2286 36.3432 21.9156 36.3031 22.2806 36.254ZM8.92472 28.6822C9.15756 28.4777 9.19903 28.3856 9.19115 28.0902C9.17087 27.3288 8.30747 27.0091 7.79472 27.5731C7.08883 28.3495 8.1346 29.376 8.92472 28.6822ZM28.1484 28.8056C28.6245 28.5637 28.7139 27.9854 28.339 27.5731C27.8251 27.0078 26.9346 27.3415 26.9346 28.0993C26.9346 28.3797 26.9841 28.4847 27.2097 28.6828C27.5131 28.9493 27.7935 28.986 28.1484 28.8056ZM23.8731 21.3876C24.0311 21.3227 24.2016 21.1939 24.2521 21.1013C24.4113 20.8089 24.3607 20.3673 24.139 20.114C23.969 19.9198 23.867 19.8801 23.5379 19.8801C23.2088 19.8801 23.1067 19.9198 22.9367 20.114C22.7151 20.3672 22.6644 20.8089 22.8236 21.101C22.9035 21.2477 23.3286 21.4929 23.5194 21.5023C23.5558 21.5041 23.7151 21.4525 23.8731 21.3876ZM8.98893 20.3782C9.31227 20.0606 9.28369 19.5622 8.92396 19.2464C8.77272 19.1135 8.55591 19.0048 8.44217 19.0048C7.7244 19.0048 7.30572 19.7622 7.73026 20.2925C8.07523 20.7236 8.60095 20.7593 8.98893 20.3782ZM12.0828 9.80092C12.2408 9.73598 12.4113 9.6072 12.4618 9.51459C12.621 9.22217 12.5705 8.78063 12.3487 8.5273C12.1787 8.33308 12.0767 8.2934 11.7476 8.2934C11.4185 8.2934 11.3164 8.33308 11.1465 8.5273C10.9248 8.78054 10.8742 9.22217 11.0333 9.51434C11.1132 9.66105 11.5383 9.9062 11.7291 9.91562C11.7656 9.91737 11.9248 9.86577 12.0828 9.80092ZM24.7695 9.793C25.0683 9.64112 25.1919 9.43406 25.1919 9.0853C25.1919 8.73228 25.0679 8.52922 24.755 8.37026C24.199 8.08768 23.5803 8.46045 23.5803 9.07796C23.5803 9.73865 24.1739 10.0956 24.7695 9.793Z" fill="#FF6600"/>
</svg>
