<svg width="21" height="21" viewBox="0 0 21 21" fill="none" xmlns="http://www.w3.org/2000/svg">
<g clip-path="url(#clip0_219_678)">
<path d="M15.5418 21.0002C8.42713 21.2408 -4.38987 8.52707 1.56101 1.63382L2.56726 0.758819C3.07661 0.266426 3.75937 -0.00560086 4.46778 0.00160441C5.17619 0.00880968 5.85327 0.294668 6.35251 0.797319C6.37949 0.824798 6.40463 0.854028 6.42776 0.884819L8.00276 2.93144C8.4814 3.43793 8.74735 4.10883 8.74572 4.80569C8.74409 5.50256 8.47501 6.17221 7.99401 6.67645L6.98076 7.95045C7.54173 9.31288 8.36625 10.5511 9.40698 11.5941C10.4477 12.6371 11.6842 13.4643 13.0454 14.0282L14.3264 13.0088C14.8372 12.5397 15.5052 12.2789 16.1987 12.278C16.8923 12.277 17.561 12.5359 18.0731 13.0036L20.1206 14.5786C20.1512 14.6016 20.1804 14.6265 20.2081 14.6529C20.7131 15.1625 20.9964 15.8509 20.9964 16.5683C20.9964 17.2857 20.7131 17.9741 20.2081 18.4837L19.411 19.4024C18.9054 19.9136 18.3025 20.3183 17.638 20.5927C16.9735 20.8671 16.2607 21.0057 15.5418 21.0002ZM4.43713 1.75019C4.31139 1.7501 4.18685 1.77477 4.07065 1.82282C3.95445 1.87086 3.84885 1.94133 3.75988 2.03019L2.75276 2.90519C-2.18749 8.8447 12.9299 23.1203 18.13 18.2072L18.928 17.2876C19.0229 17.2031 19.1001 17.1008 19.1552 16.9864C19.2103 16.872 19.2423 16.7478 19.2492 16.621C19.2561 16.4942 19.2378 16.3673 19.1955 16.2476C19.1531 16.1278 19.0875 16.0177 19.0024 15.9234L16.9663 14.3598C16.9351 14.3369 16.9058 14.3114 16.8788 14.2837C16.6962 14.1097 16.4537 14.0127 16.2015 14.0127C15.9493 14.0127 15.7068 14.1097 15.5243 14.2837C15.501 14.3072 15.4765 14.3294 15.4508 14.3502L13.7375 15.7152C13.6186 15.8099 13.477 15.8719 13.3268 15.8952C13.1766 15.9186 13.0229 15.9023 12.8809 15.8482C11.117 15.1911 9.51494 14.1625 8.18327 12.8322C6.8516 11.5019 5.82141 9.90091 5.16251 8.1377C5.10417 7.99364 5.08526 7.83665 5.10771 7.68287C5.13017 7.52909 5.19317 7.38406 5.29026 7.2627L6.65001 5.55119C6.67023 5.52527 6.69215 5.50072 6.71563 5.47769C6.89437 5.29743 6.99465 5.05386 6.99465 4.80001C6.99465 4.54615 6.89437 4.30258 6.71563 4.12232C6.68836 4.09511 6.6632 4.06586 6.64038 4.03482L5.08026 2.00132C4.90397 1.84204 4.67471 1.75408 4.43713 1.75457V1.75019Z" fill="#D0D0D0"/>
</g>
<defs>
<clipPath id="clip0_219_678">
<rect width="21" height="21" fill="white"/>
</clipPath>
</defs>
</svg>
