<svg width="25" height="27" viewBox="0 0 25 27" fill="none" xmlns="http://www.w3.org/2000/svg">
<path d="M16.427 18.3332C16.427 17.8327 16.8327 17.4269 17.3333 17.4269C17.8338 17.4269 18.2395 17.8327 18.2395 18.3332H16.427ZM18.2395 8.6665C18.2395 9.16701 17.8338 9.57275 17.3333 9.57275C16.8327 9.57275 16.427 9.16701 16.427 8.6665H18.2395ZM12.4999 2.32275H6.45825V0.510254H12.4999V2.32275ZM2.53117 6.24984V20.7498H0.71867V6.24984H2.53117ZM6.45825 24.6769H12.4999V26.4894H6.45825V24.6769ZM16.427 20.7498V18.3332H18.2395V20.7498H16.427ZM16.427 8.6665V6.24984H18.2395V8.6665H16.427ZM12.4999 24.6769C14.6688 24.6769 16.427 22.9187 16.427 20.7498H18.2395C18.2395 23.9197 15.6698 26.4894 12.4999 26.4894V24.6769ZM2.53117 20.7498C2.53117 22.9187 4.28938 24.6769 6.45825 24.6769V26.4894C3.28837 26.4894 0.71867 23.9197 0.71867 20.7498H2.53117ZM6.45825 2.32275C4.28938 2.32275 2.53117 4.08097 2.53117 6.24984H0.71867C0.71867 3.07995 3.28836 0.510254 6.45825 0.510254V2.32275ZM12.4999 0.510254C15.6698 0.510254 18.2395 3.07995 18.2395 6.24984H16.427C16.427 4.08097 14.6688 2.32275 12.4999 2.32275V0.510254Z" fill="#1B1816"/>
<path d="M20.9583 17.125L23.7288 14.3544C24.2007 13.8825 24.2007 13.1175 23.7288 12.6456L20.9583 9.875" stroke="#FF6600" stroke-width="1.8125" stroke-linecap="round"/>
<path d="M23.375 13.5L8.875 13.5" stroke="#FF6600" stroke-width="1.8125" stroke-linecap="round"/>
</svg>
