<svg width="33" height="39" viewBox="0 0 33 39" fill="none" xmlns="http://www.w3.org/2000/svg">
<path fill-rule="evenodd" clip-rule="evenodd" d="M26.9107 0.0971723C26.3158 0.230712 25.9697 0.385186 25.3747 0.782813C23.3401 2.14243 22.8468 5.10392 24.3287 7.0623C24.4703 7.24937 24.5686 7.44871 24.5471 7.50516C24.5256 7.56161 23.4671 9.0917 22.1949 10.9052C20.4894 13.3365 19.851 14.193 19.7643 14.1655C19.6997 14.145 19.436 14.0393 19.1782 13.9306C18.4156 13.6088 17.7541 13.4992 16.8302 13.5417C15.5182 13.6021 14.2925 14.0901 13.3948 14.9096L12.9449 15.3204L9.82872 12.8812C8.11489 11.5397 6.71311 10.4361 6.71363 10.429C6.71415 10.4218 6.78086 10.2026 6.86187 9.94191C7.41771 8.15326 6.42678 6.20139 4.6498 5.58469C3.41583 5.15641 2.11211 5.43605 1.1326 6.33905C-0.0304416 7.4114 -0.326482 9.04594 0.378263 10.5041C1.23903 12.2852 3.35942 12.9821 5.14033 12.0694C5.35595 11.9589 5.57276 11.8932 5.62212 11.9234C5.86413 12.0711 11.9012 16.8282 11.9011 16.8712C11.9011 16.8985 11.8383 17.0891 11.7617 17.2947C11.2726 18.6058 11.3842 20.4781 12.0289 21.7809C12.2329 22.1931 12.6908 22.8473 13.0319 23.2138C13.1736 23.366 13.2312 23.4859 13.1937 23.5503C13.1616 23.6052 12.3064 24.834 11.2934 26.2808L9.45145 28.9115L9.05193 28.727C7.68758 28.0969 5.92809 28.2343 4.64691 29.071C2.14524 30.7048 1.7587 34.2551 3.85329 36.3607C4.76906 37.2813 5.87643 37.741 7.18378 37.7432C7.97021 37.7445 8.55969 37.604 9.30691 37.237C10.0614 36.8665 10.9462 35.98 11.2993 35.2411C11.719 34.3627 11.786 34.0599 11.7881 33.0338C11.7903 31.9544 11.6605 31.459 11.1533 30.6108C10.9832 30.3262 10.8798 30.0755 10.9109 30.0227C10.9407 29.9722 11.827 28.7006 12.8804 27.1969L14.7956 24.4628L15.3073 24.636C16.3959 25.0043 17.4551 25.0325 18.5939 24.7234C18.9117 24.6371 19.1812 24.5791 19.1928 24.5944C19.4592 24.9453 23.8347 31.5486 23.8347 31.5997C23.8347 31.6399 23.7205 31.8441 23.581 32.0532C23.1688 32.6711 23.0004 33.2042 22.9626 34.0108C22.9216 34.8856 23.0227 35.4132 23.3627 36.0987C24.0375 37.4594 25.6038 38.3533 27.1154 38.2404C28.5604 38.1325 29.7945 37.309 30.433 36.0267C30.6718 35.5471 30.7335 35.3151 30.8016 34.6414C30.9248 33.4211 30.5395 32.3209 29.6864 31.4567C28.6872 30.4445 27.2839 30.044 25.9333 30.3857C25.676 30.4508 25.429 30.4918 25.3847 30.477C25.3403 30.462 24.2778 28.92 23.0236 27.0501L20.7432 23.6503L21.1957 23.1502C21.7066 22.5856 22.0619 22.0288 22.3175 21.3923C22.4534 21.0539 22.5294 20.9548 22.6629 20.9418C22.757 20.9326 23.5345 21.0686 24.3906 21.2439L25.9471 21.5628L26.0098 21.8588C26.1365 22.4578 26.4367 23.1377 26.7542 23.5453C27.142 24.0429 27.844 24.5361 28.4212 24.7163C29.0403 24.9097 30.1188 24.8896 30.6777 24.6744C32.2524 24.0677 33.22 22.4295 32.9571 20.815C32.7066 19.2769 31.5354 18.0995 30.005 17.8473C28.73 17.6372 27.3167 18.2509 26.613 19.3202C26.4588 19.5547 26.2921 19.7247 26.2165 19.7247C26.1447 19.7247 25.3398 19.5733 24.4276 19.3883C23.5155 19.2032 22.7588 19.0518 22.7461 19.0518C22.7333 19.0518 22.7229 18.9058 22.7229 18.7273C22.7229 17.9287 22.2131 16.5801 21.6061 15.7729L21.3051 15.3725L21.4842 15.0999C21.6291 14.8793 26.0402 8.58529 26.088 8.53093C26.0955 8.52233 26.3171 8.58663 26.5804 8.67374C27.2635 8.89992 28.4211 8.90201 29.1343 8.6783C30.9613 8.10519 32.2068 6.42989 32.2339 4.50905C32.2453 3.70587 32.1357 3.20573 31.7837 2.45288C31.4583 1.75707 30.6263 0.888014 29.9359 0.523212C29.0128 0.0353375 27.8904 -0.122726 26.9107 0.0971723ZM28.9612 2.13585C29.5348 2.42072 29.9275 2.82815 30.1949 3.41591C30.4676 4.01497 30.4667 4.85531 30.1931 5.45676C29.5191 6.93795 27.8124 7.46089 26.4615 6.59999C25.7154 6.12453 25.3008 5.34887 25.3037 4.43428C25.3046 4.14642 25.3567 3.76756 25.4194 3.5923C25.9476 2.11708 27.5756 1.44767 28.9612 2.13585ZM4.42914 7.50486C5.04464 7.94129 5.30725 8.56226 5.16716 9.25022C5.06777 9.73854 4.84244 10.0929 4.47361 10.3411C3.60669 10.9243 2.47567 10.6283 2.01597 9.69771C1.57806 8.81124 1.92636 7.80715 2.8213 7.37618C3.28426 7.15322 4.01576 7.21176 4.42914 7.50486ZM17.8552 15.424C19.6353 15.8046 20.9384 17.4158 20.9428 19.2417C20.9469 20.9057 19.6793 22.5566 18.0737 22.9784C17.5456 23.1172 16.654 23.1199 16.149 22.9843C14.7797 22.6165 13.6712 21.4678 13.347 20.0806C12.9524 18.3926 13.7634 16.6248 15.3078 15.806C16.1747 15.3466 16.9491 15.2304 17.8552 15.424ZM30.4 19.9147C30.6614 20.0778 30.8165 20.2493 30.9727 20.5483C31.1616 20.9098 31.1831 21.0163 31.1538 21.447C31.0331 23.2255 28.7525 23.6544 27.949 22.0496C27.655 21.4624 27.8566 20.497 28.3633 20.0662C28.7599 19.729 29.0096 19.6456 29.5508 19.6695C29.943 19.6868 30.1135 19.736 30.4 19.9147ZM8.43309 30.4752C10.1606 31.3338 10.5504 33.6325 9.20685 35.0379C9.0377 35.2149 8.69556 35.4611 8.44658 35.585C6.98558 36.3122 5.30599 35.7197 4.60629 34.2303C4.40097 33.7933 4.37785 33.6722 4.37785 33.0338C4.37785 32.393 4.40038 32.2759 4.60836 31.8375C4.85889 31.3092 5.22216 30.8921 5.69291 30.5923C6.17195 30.2873 6.5407 30.1991 7.2705 30.2152C7.86058 30.2282 7.99785 30.2589 8.43309 30.4752ZM27.7808 32.3009C28.2263 32.4942 28.7469 33.065 28.9052 33.5336C29.1641 34.3 28.9991 35.113 28.4626 35.7149C27.4562 36.8442 25.6352 36.5915 24.944 35.2268C24.6869 34.719 24.6824 33.8224 24.9344 33.3329C25.5021 32.2303 26.6549 31.8124 27.7808 32.3009Z" fill="#FF6600"/>
</svg>
