<svg width="37" height="37" viewBox="0 0 37 37" fill="none" xmlns="http://www.w3.org/2000/svg">
<path fill-rule="evenodd" clip-rule="evenodd" d="M17.4521 0.108516C16.8557 0.22125 16.2974 0.411019 15.758 0.6844C15.1222 1.00656 4.63389 7.07044 4.19596 7.36897C3.08899 8.12378 2.23503 9.36776 1.86127 10.7701L1.69824 11.3817V18.4999V25.6181L1.86127 26.2297C2.23503 27.632 3.08899 28.876 4.19596 29.6308C4.63432 29.9296 15.1222 35.9932 15.7595 36.3163C17.5069 37.2019 19.4931 37.2019 21.2405 36.3163C21.8778 35.9932 32.3657 29.9296 32.804 29.6308C33.911 28.876 34.765 27.632 35.1387 26.2297L35.3018 25.6181V18.4999V11.3817L35.1387 10.7701C34.765 9.36776 33.911 8.12378 32.804 7.36897C32.335 7.04919 21.8305 0.980834 21.2015 0.666262C20.0064 0.0686971 18.6951 -0.126348 17.4521 0.108516ZM19.5479 3.08694C19.9619 3.24607 30.7182 9.42962 31.2333 9.80461C31.6398 10.1006 32.0151 10.5936 32.2437 11.1318L32.4111 11.5263L32.4312 18.2831C32.4443 22.7305 32.4257 25.159 32.3766 25.3884C32.3355 25.5801 32.217 25.9166 32.1132 26.1361C31.7261 26.9543 31.6357 27.0147 25.5059 30.5471C22.388 32.3439 19.6906 33.8697 19.5117 33.9378C19.0314 34.1207 17.9274 34.1109 17.4521 33.9194C17.0206 33.7457 6.25538 27.551 5.76673 27.1952C5.371 26.9071 5.01097 26.4317 4.76397 25.871L4.58887 25.4735L4.56885 18.7167C4.55613 14.4199 4.57506 11.8373 4.62088 11.6232C4.73831 11.0745 5.06315 10.4769 5.45642 10.0859C5.75104 9.79312 6.96308 9.06382 11.4995 6.44953C14.6204 4.65099 17.3179 3.13261 17.4937 3.07538C17.6696 3.01807 17.8785 2.95484 17.958 2.93468C18.2496 2.8609 19.1953 2.95144 19.5479 3.08694ZM10.3701 12.585C9.55785 12.8842 9.1773 13.787 9.53314 14.5706C9.64125 14.8088 10.0989 15.2313 11.8029 16.6663C12.9768 17.6549 13.9372 18.48 13.9372 18.4999C13.9372 18.5198 12.9764 19.3452 11.8021 20.3341C9.99166 21.8588 9.64508 22.1818 9.52273 22.4585C9.22095 23.1407 9.50387 23.9716 10.1533 24.3109C10.5043 24.4941 11.1366 24.507 11.4541 24.3374C11.5733 24.2738 12.9457 23.143 14.5038 21.8246C17.5485 19.2482 17.6328 19.1586 17.6328 18.4999C17.6328 17.8412 17.5485 17.7516 14.5038 15.1752C12.9457 13.8568 11.5797 12.7305 11.4683 12.6723C11.1974 12.5307 10.638 12.4862 10.3701 12.585ZM19.1143 21.7091C18.4647 21.9969 18.1026 22.7433 18.2846 23.4193C18.394 23.8254 18.8649 24.3075 19.259 24.4169C19.452 24.4706 20.6869 24.497 22.9805 24.4969L26.4131 24.4965L26.7879 24.3221C27.8762 23.8153 27.8699 22.2394 26.7774 21.7432C26.5065 21.6201 26.226 21.6106 22.9082 21.6117C20.0914 21.6127 19.2849 21.6334 19.1143 21.7091Z" fill="#FF6600"/>
</svg>
