<svg width="27" height="46" viewBox="0 0 27 46" fill="none" xmlns="http://www.w3.org/2000/svg">
<path fill-rule="evenodd" clip-rule="evenodd" d="M4.64585 0.136015C2.99971 0.493204 1.42613 1.72017 0.665549 3.23976C-0.0457681 4.6611 0.000620125 3.2829 0.000620125 23.0012C0.000620125 42.7206 -0.0458611 41.3418 0.666013 42.7626C1.34096 44.1097 2.54965 45.1503 4.09485 45.7148L4.77536 45.9633L13.048 45.9894C22.36 46.0187 22.0867 46.0357 23.4647 45.3419C24.8185 44.6604 25.859 43.4537 26.4221 41.9123L26.6706 41.2317V23.0475V4.86335L26.4648 4.21391C25.9866 2.70444 24.845 1.35018 23.4698 0.661222C22.1062 -0.0219838 22.3697 -0.0049129 13.3108 0.00158145C6.79075 0.00622028 5.12522 0.0321049 4.64585 0.136015ZM21.8423 1.61905C23.5011 2.05111 24.827 3.44563 25.1379 5.08518C25.19 5.3598 25.2326 5.66234 25.2326 5.75734C25.2326 5.92518 24.8808 5.93028 13.3572 5.93028H1.4818V5.67143C1.4818 5.52911 1.54405 5.1735 1.62022 4.88125C2.03391 3.29292 3.26394 2.04536 4.83214 1.62369C5.60163 1.4167 21.0495 1.41253 21.8423 1.61905ZM10.6161 3.1892C10.4725 3.33272 10.3883 3.52291 10.3883 3.70364C10.3883 3.88437 10.4725 4.07456 10.6161 4.21809L10.8438 4.44585H13.3572H15.8706L16.0983 4.21809C16.2419 4.07456 16.326 3.88437 16.326 3.70364C16.326 3.52291 16.2419 3.33272 16.0983 3.1892L15.8706 2.96143H13.3572H10.8438L10.6161 3.1892ZM25.2326 21.5167V35.6188H13.3572H1.4818V21.5167V7.4147H13.3572H25.2326V21.5167ZM25.2326 38.7605C25.2326 40.7055 25.1584 41.1907 24.726 42.0724C24.1499 43.2472 22.9156 44.1857 21.6244 44.4306C20.9453 44.5594 5.76909 44.5594 5.08997 44.4306C3.88007 44.2011 2.62026 43.2835 2.05237 42.2179C1.57086 41.3146 1.4818 40.7882 1.4818 38.8465V37.1032H13.3572H25.2326V38.7605ZM12.615 38.7089C12.1596 38.8524 11.383 39.6566 11.2434 40.1292C10.9864 40.9991 11.1676 41.6926 11.8232 42.3482C12.3037 42.8287 12.7736 43.0409 13.3572 43.0409C13.9408 43.0409 14.4107 42.8287 14.8912 42.3482C15.7978 41.4416 15.8249 40.2883 14.9621 39.3287C14.3617 38.6609 13.4942 38.4317 12.615 38.7089ZM13.8716 40.2998C14.0153 40.4433 14.0994 40.6335 14.0994 40.8142C14.0994 40.995 14.0153 41.1852 13.8716 41.3287C13.4115 41.789 12.615 41.4628 12.615 40.8142C12.615 40.4328 12.9758 40.072 13.3572 40.072C13.5379 40.072 13.7281 40.1562 13.8716 40.2998Z" fill="#FF6600"/>
</svg>
