<svg width="22" height="22" viewBox="0 0 22 22" fill="none" xmlns="http://www.w3.org/2000/svg">
<path fill-rule="evenodd" clip-rule="evenodd" d="M10.8527 1.62791C5.76606 1.62791 1.62792 5.76605 1.62792 10.8527C1.62792 15.9394 5.76606 20.0775 10.8527 20.0775C15.9394 20.0775 20.0775 15.9394 20.0775 10.8527C20.0775 5.76605 15.9394 1.62791 10.8527 1.62791ZM10.8527 21.7054C4.86853 21.7054 0 16.8369 0 10.8527C0 4.86853 4.86853 0 10.8527 0C16.8369 0 21.7054 4.86853 21.7054 10.8527C21.7054 16.8369 16.8369 21.7054 10.8527 21.7054Z" fill="#1B1816"/>
<path fill-rule="evenodd" clip-rule="evenodd" d="M14.5766 14.8599C14.4344 14.8599 14.2911 14.823 14.1598 14.7459L10.0684 12.3051C9.82308 12.1575 9.67114 11.8916 9.67114 11.6051V6.34374C9.67114 5.89444 10.0358 5.52979 10.4851 5.52979C10.9355 5.52979 11.299 5.89444 11.299 6.34374V11.1428L14.9944 13.3459C15.3797 13.5771 15.5066 14.0763 15.2766 14.4627C15.1235 14.7177 14.8533 14.8599 14.5766 14.8599Z" fill="#FF6600"/>
</svg>
